<svg xmlns="http://www.w3.org/2000/svg" xmlns:xlink="http://www.w3.org/1999/xlink" width="120" height="120" viewBox="0 0 120 120"><defs><style>.a{fill:#fff;}.b{fill:#2a2c48;}.c{clip-path:url(#c);}.d{fill:#fbbd00;}.e{fill:#0f9d58;}.f{fill:#31aa52;}.g{fill:#3c79e6;}.h{fill:#cf2d48;}.i{fill:#eb4132;}.j{filter:url(#a);}</style><filter id="a" x="-30" y="-30" width="180" height="180" filterUnits="userSpaceOnUse"><feOffset input="SourceAlpha"/><feGaussianBlur stdDeviation="10" result="b"/><feFlood flood-opacity="0.302"/><feComposite operator="in" in2="b"/><feComposite in="SourceGraphic"/></filter><clipPath id="c"><g class="j" transform="matrix(1, 0, 0, 1, 0, 0)"><rect class="a" width="120" height="120" rx="10" transform="translate(0 0)"/></g></clipPath></defs><g transform="translate(-1202 -3341)"><path class="b" d="M10,0H110a10,10,0,0,1,10,10V110a10,10,0,0,1-10,10H10A10,10,0,0,1,0,110V10A10,10,0,0,1,10,0Z" transform="translate(1202 3341)"/><g class="c" transform="translate(1202 3341)"><g transform="translate(16.519 16.519)"><path class="d" d="M20.382,68.934a22.958,22.958,0,0,1,3.249-11.8V42.474H8.972a43.5,43.5,0,0,0,0,52.92H23.631V80.734A22.958,22.958,0,0,1,20.382,68.934Z" transform="translate(0 -25.453)"/><path class="e" d="M93.261,161.305,83.07,171.5l10.191,10.191a43.152,43.152,0,0,0,26.46-8.972V158.071H105.077A23.1,23.1,0,0,1,93.261,161.305Z" transform="translate(-49.78 -94.724)"/><path class="f" d="M37.047,137.946,22.388,152.606a44.173,44.173,0,0,0,3.764,4.286A43.2,43.2,0,0,0,56.9,169.627V149.245a23.109,23.109,0,0,1-19.85-11.3Z" transform="translate(-13.416 -82.664)"/><path class="g" d="M151.981,93.6a43.863,43.863,0,0,0-.712-7.877l-.382-2.089H108.5v20.382h20.628a23,23,0,0,1-8.812,9.45l14.644,14.644a44.168,44.168,0,0,0,4.286-3.764A43.2,43.2,0,0,0,151.981,93.6Z" transform="translate(-65.019 -50.116)"/><path class="h" d="M109.6,27.147l1.8,1.8,14.412-14.412-1.8-1.8A43.2,43.2,0,0,0,93.261,0L83.07,10.191,93.261,20.382A22.949,22.949,0,0,1,109.6,27.147Z" transform="translate(-49.78 0)"/><path class="i" d="M56.9,20.382V0A43.2,43.2,0,0,0,26.151,12.735a44.135,44.135,0,0,0-3.764,4.286L37.047,31.681A23.109,23.109,0,0,1,56.9,20.382Z" transform="translate(-13.416 0)"/></g></g></g></svg>