<svg xmlns="http://www.w3.org/2000/svg" width="65.751" height="66.451" viewBox="0 0 65.751 66.451"><defs><style>.a{fill:#fff;}.b{fill:#e6e6e6;}.c{fill:#0ebace;}</style></defs><g transform="translate(-1332.252 -1078.562)"><path class="a" d="M795.867,530.354c43.838-.783,43.831-65.675,0-66.451C752.03,464.686,752.036,529.578,795.867,530.354Z" transform="translate(569.261 614.659)"/><path class="b" d="M795.867,530.354c43.838-.783,43.831-65.675,0-66.451C752.03,464.686,752.036,529.578,795.867,530.354Zm0-64.437c41.181.736,41.175,61.694,0,62.424C754.687,527.606,754.693,466.647,795.867,465.917Z" transform="translate(569.261 614.659)"/><path class="c" d="M824.616,501.721a31.362,31.362,0,0,1-3.376,3.363c-1.5,16.218-11.662,19.9-19.825,19.9-5.868,0-10.7-1.9-10.543-2.427,8.707.2,9.449-3.357,9.449-3.357-5.058-.745-6.072-4.034-6.072-4.034a2.089,2.089,0,0,0,2.7-.671,6.109,6.109,0,0,1-4.718-6.726,7.045,7.045,0,0,0,3.3,1.281c-.606-.739-5.714-6.837-2.64-10,.179.48,5.5,7.693,14.384,7.17a7.123,7.123,0,0,1,6.95-8.537c4.724,0,5.739,2.692,5.739,2.692l3.376-2.02c-.068,0-.408,3.363-2.1,4.034Z" transform="translate(556.149 601.684)"/></g></svg>