<svg xmlns="http://www.w3.org/2000/svg" xmlns:xlink="http://www.w3.org/1999/xlink" width="65.752" height="66.452" viewBox="0 0 65.752 66.452"><defs><style>.a{fill:#fff;}.b{fill:#e6e6e6;}.c{fill:url(#a);}</style><linearGradient id="a" x1="0.87" x2="0.116" y2="1" gradientUnits="objectBoundingBox"><stop offset="0" stop-color="#f90"/><stop offset="1" stop-color="#9a13d2"/></linearGradient></defs><g transform="translate(-1390.355 -886.651)"><g transform="translate(1390.355 886.651)"><path class="a" d="M790.087,213.931c43.838-.783,43.831-65.675,0-66.452C746.248,148.262,746.255,213.154,790.087,213.931Z" transform="translate(-757.21 -147.479)"/><path class="b" d="M790.087,213.931c43.838-.783,43.831-65.675,0-66.452C746.248,148.262,746.255,213.154,790.087,213.931Zm0-64.437c41.181.736,41.174,61.694,0,62.424-41.18-.736-41.174-61.695,0-62.425Z" transform="translate(-757.21 -147.479)"/><path class="c" d="M806.862,173.685c-8.224.235-24.216-2.693-24.224,9.936.236,8.191-2.7,24.12,9.975,24.128,8.223-.235,24.215,2.693,24.223-9.936C816.6,189.622,819.541,173.693,806.862,173.685Z" transform="translate(-766.862 -157.491)"/><path class="a" d="M824.085,187.251c2.767.035,2.758-4.3-.009-4.249C821.308,182.968,821.318,187.3,824.085,187.251Z" transform="translate(-800.471 -161.122)"/></g><path class="a" d="M805.242,190.433c-7.4-.108-7.4,11.465,0,11.355C812.638,201.9,812.638,190.325,805.242,190.433Zm0-2.838c11.092-.161,11.094,17.2,0,17.032C794.148,204.789,794.149,187.432,805.242,187.595Z" transform="translate(617.989 723.766)"/></g></svg>