<svg xmlns="http://www.w3.org/2000/svg" width="21.472" height="11.205" viewBox="0 0 21.472 11.205"><defs><style>.a{fill:#fff;}</style></defs><g transform="translate(-1419.8 -1262.186)"><path class="a" d="M722.19,519.956a1,1,0,0,0,.761-1.7l-3.365-3.542a.576.576,0,0,1,.023-.816l3.575-3.37a1.03,1.03,0,0,0,.04-1.46h0a1.042,1.042,0,0,0-1.461-.045l-4.81,4.477a.974.974,0,0,0-.038,1.389l4.573,4.753A1.009,1.009,0,0,0,722.19,519.956Z" transform="translate(703.156 753.435)"/><path class="a" d="M693.22,517.906a.617.617,0,0,0,.4.162l11.214.308a.616.616,0,1,0,.034-1.231l-11.214-.308a.616.616,0,0,0-.436,1.069Z" transform="translate(735.801 750.329)"/></g></svg>