<svg xmlns="http://www.w3.org/2000/svg" width="666.777" height="443.66" viewBox="0 0 666.777 443.66"><defs><style>.a{fill:#0388ee;}.b{fill:#3f3d56;}.c{fill:#2f2e41;}.d{fill:#ffb8b8;}.e{fill:#0cbc35;}.f{fill:#2a2c48;}.g{fill:#fff;}</style></defs><g transform="translate(-1253.623 -1664)"><path class="a" d="M229.307,319.627c0,88.991,145.6,164.007,344.27,187.037,32.265,3.73,65.044,6.034,98.008,6.886,1.6.043,3.207.086,4.822.117q12.869.286,25.931.289,22.712,0,44.886-.868,12.3-.471,24.4-1.2c31.839-1.921,93.263-9.79,93.263-9.79l.2-361.8s-79.148-15-162.746-15C441.095,125.3,229.307,212.3,229.307,319.627Z" transform="translate(1055.316 1593.703)"/><g transform="translate(1253.623 1664)"><rect class="b" width="192.257" height="0.836" transform="translate(238.893 367.594)"/><g transform="translate(-11.773 -33.139)"><path class="c" d="M275.994,463.832l-19.076,11.739s-10.272,85.844,0,93.915S275.994,463.832,275.994,463.832Z" transform="translate(97.615 -291.896)"/><path class="d" d="M195.311,602.175a7.378,7.378,0,0,0,.741-11.289l10.9-23.847-13.463,2.094L185.2,591.458a7.418,7.418,0,0,0,10.109,10.717Z" transform="translate(217.194 -319.379)"/><g transform="translate(334.038 120.824)"><path class="c" d="M32.4,346.374l6.6-.734,16.875,55.028L39,438.821,25.8,430.75,40.47,399.2,28.731,365.45Z" transform="translate(43.857 -290.858)"/><path class="d" d="M122.879,627.35h-8.995l-4.28-34.7h13.276Z" transform="translate(-84.637 -356.636)"/><path class="c" d="M0,10.923H28.27V0H10.923A10.923,10.923,0,0,0,0,10.923H0Z" transform="translate(11.902 268.144)"/><path class="d" d="M62.124,625.1l-8.917,1.189-8.828-33.826,13.159-1.754Z" transform="translate(23.977 -356.119)"/><path class="c" d="M0,10.923H28.27V0H10.923A10.923,10.923,0,0,0,0,10.923H0Z" transform="matrix(0.991, -0.132, 0.132, 0.991, 59.649, 269.918)"/><path class="c" d="M95.422,444.64l-50.626,2.2L47,575.24,60.2,573.773l10.272-87.312,24.212,93.181,13.207-2.2Z" transform="translate(-22.1 -317.221)"/><path class="e" d="M227.293,462.526l17.609-3.6,11.006,80.637s-32.283,21.277-42.555-.734Z" transform="translate(-187.721 -411.414)"/><ellipse class="d" cx="18.021" cy="18.021" rx="18.021" ry="18.021" transform="translate(29.231 5.601)"/><path class="c" d="M188.456,457.832l25.68,8.071s-12.473,62.365,8.071,94.649c0,0-25.68,27.147-36.686-33.751C185.522,526.8,176.717,477.642,188.456,457.832Z" transform="translate(-131.276 -411.122)"/><path class="d" d="M292.123,611.612a7.378,7.378,0,0,0-.71-11.291l7.756-25.046-13.084,3.8-5.359,23.2a7.418,7.418,0,0,0,11.4,9.335Z" transform="translate(-279.559 -442.396)"/><path class="c" d="M144.074,355.64l-3.669.734L122.8,442.218l11.739,3.669,13.94-50.626Z" transform="translate(-119.91 -293.521)"/><path class="c" d="M239.938,425.19a10.318,10.318,0,0,0-6.2-8.1c-3.469-1.422-7.382-.822-11.121-.549s-7.9.036-10.6-2.567a9.087,9.087,0,0,1-1.829-9.535,13.831,13.831,0,0,1,6.948-7.239,29.931,29.931,0,0,1,9.884-2.612,40.348,40.348,0,0,1,15,.59c4.871,1.271,3.615,3.994,6.469,8.141s3.709,9.795,1.533,14.334c-1.456,3.037-4.065,5.336-6.606,7.547" transform="translate(-180.304 -394.169)"/></g></g><path class="f" d="M618.348,395.857v-.836c-1.662,0-3.349-.035-5.015-.1l-.034.835C614.977,395.822,616.675,395.856,618.348,395.857Zm5.047-.1c1.671-.065,3.366-.165,5.039-.3l-.066-.833c-1.662.131-3.346.231-5.006.3Zm-15.134-.308.067-.833c-1.659-.133-3.337-.3-4.989-.5l-.1.83c1.663.2,3.353.37,5.023.5Zm25.2-.487c1.667-.2,3.349-.435,5-.7l-.133-.825c-1.64.263-3.311.5-4.966.7Zm-35.219-.722.133-.825c-1.639-.265-3.3-.568-4.933-.9l-.167.819c1.645.335,3.316.64,4.966.907Zm45.185-.879c1.645-.333,3.3-.7,4.927-1.1l-.2-.812c-1.614.4-3.26.764-4.894,1.094Zm-55.078-1.135.2-.811c-1.619-.4-3.248-.835-4.844-1.3l-.233.8c1.607.466,3.248.9,4.877,1.306Zm64.883-1.267c1.612-.465,3.234-.969,4.821-1.5l-.264-.793c-1.577.525-3.188,1.025-4.789,1.487Zm-74.579-1.542.265-.793c-1.578-.527-3.167-1.094-4.723-1.686l-.3.781C575.462,388.318,577.062,388.889,578.651,389.42Zm84.171-1.652c1.568-.594,3.148-1.229,4.695-1.889l-.328-.769c-1.537.655-3.106,1.286-4.664,1.875Zm-93.6-1.928.328-.769c-1.528-.653-3.062-1.344-4.56-2.057l-.359.755c1.508.717,3.053,1.413,4.591,2.071Zm102.9-2.037c1.518-.721,3.041-1.482,4.524-2.262l-.389-.74c-1.474.774-2.985,1.53-4.494,2.246Zm-112-2.288.389-.74c-1.472-.775-2.947-1.589-4.383-2.42l-.419.723c1.446.836,2.93,1.656,4.412,2.436ZM681.082,379.1c1.457-.842,2.912-1.723,4.324-2.618l-.447-.706c-1.4.889-2.849,1.764-4.3,2.6Zm-129.677-2.633.447-.706c-1.4-.888-2.807-1.818-4.177-2.765l-.475.687c1.379.954,2.794,1.891,4.2,2.784Zm138.215-2.774c1.382-.955,2.761-1.949,4.1-2.955l-.5-.668c-1.328,1-2.7,1.987-4.071,2.936ZM543.11,370.732l.5-.668c-1.325-1-2.652-2.037-3.944-3.093l-.529.647c1.3,1.062,2.636,2.11,3.97,3.113Zm154.585-3.112c1.3-1.06,2.592-2.162,3.846-3.273l-.554-.625c-1.246,1.1-2.532,2.2-3.821,3.251Zm-162.4-3.271.554-.625c-1.245-1.1-2.485-2.248-3.685-3.4l-.579.6c1.208,1.16,2.456,2.311,3.71,3.422Zm169.955-3.426c1.206-1.158,2.407-2.359,3.57-3.569l-.6-.58c-1.156,1.2-2.349,2.395-3.547,3.545Zm-177.236-3.566.6-.58c-1.152-1.2-2.3-2.438-3.4-3.685l-.625.555c1.113,1.255,2.266,2.5,3.426,3.709Zm184.231-3.711c1.114-1.256,2.215-2.549,3.273-3.842l-.647-.529c-1.05,1.284-2.144,2.569-3.251,3.816ZM521.315,349.8l.647-.529c-1.056-1.291-2.1-2.62-3.1-3.947l-.668.5c1.007,1.337,2.056,2.674,3.119,3.973Zm197.321-3.967c1.007-1.338,2-2.713,2.953-4.089l-.687-.476c-.946,1.367-1.933,2.733-2.934,4.062Zm-203.4-4.1.687-.475c-.949-1.373-1.882-2.781-2.773-4.185l-.706.447c.9,1.414,1.834,2.831,2.793,4.213Zm209.137-4.189c.9-1.412,1.775-2.862,2.614-4.311l-.723-.419c-.833,1.438-1.707,2.879-2.6,4.282ZM509.826,333.2l.723-.419c-.837-1.446-1.653-2.926-2.428-4.4l-.74.389C508.161,330.252,508.983,331.741,509.826,333.2Zm219.6-4.376c.779-1.479,1.538-2.994,2.257-4.5l-.755-.359c-.714,1.5-1.469,3.005-2.242,4.474Zm-224.31-4.573.755-.359c-.716-1.505-1.411-3.046-2.065-4.581l-.769.328c.657,1.545,1.357,3.1,2.08,4.612Zm228.64-4.52c.658-1.54,1.293-3.11,1.885-4.668l-.781-.3c-.589,1.547-1.219,3.108-1.873,4.637Zm-232.611-4.786.782-.3c-.593-1.564-1.161-3.157-1.688-4.737l-.793.264c.529,1.59,1.1,3.194,1.7,4.769Zm236.2-4.636c.532-1.589,1.039-3.211,1.505-4.819l-.8-.233c-.464,1.6-.967,3.208-1.5,4.786Zm-239.4-4.954.8-.232c-.461-1.6-.9-3.225-1.295-4.845l-.811.2c.4,1.631.84,3.272,1.3,4.877Zm242.209-4.742c.4-1.628.775-3.284,1.11-4.925l-.819-.167c-.333,1.629-.7,3.275-1.1,4.892ZM495.54,295.548l.82-.167c-.331-1.628-.633-3.288-.9-4.933l-.825.133c.266,1.656.569,3.327.9,4.967Zm246.636-4.829c.268-1.65.506-3.332.708-5l-.83-.1c-.2,1.655-.438,3.326-.7,4.965Zm-248.242-5.138.83-.1c-.2-1.655-.367-3.333-.5-4.989l-.833.066c.133,1.667.3,3.357.5,5.023ZM743.391,280.7c.135-1.67.238-3.365.306-5.039l-.835-.034c-.068,1.663-.17,3.347-.3,5.006ZM493.132,275.52l.835-.033c-.065-1.666-.1-3.353-.1-5.014V270.2h-.836v.275c0,1.674.033,3.372.1,5.049Zm249.835-4.909h.836v-.14c0-1.631-.032-3.282-.094-4.906l-.835.032c.062,1.614.094,3.254.094,4.876Zm-248.987-5.428c.069-1.66.173-3.344.309-5.006l-.833-.068c-.137,1.673-.241,3.368-.311,5.039Zm248.6-4.592.833-.065c-.131-1.674-.3-3.364-.5-5.024l-.83.1C742.283,257.249,742.449,258.928,742.58,260.591Zm-247.783-5.4c.2-1.649.44-3.319.709-4.964l-.825-.135c-.271,1.656-.511,3.338-.713,5Zm246.6-4.555.825-.132c-.265-1.655-.567-3.327-.9-4.968l-.819.165C740.832,247.329,741.132,248.99,741.4,250.634Zm-244.98-5.341c.336-1.633.708-3.279,1.108-4.891l-.811-.2c-.4,1.623-.778,3.28-1.115,4.924Zm243-4.488.812-.2c-.4-1.627-.834-3.268-1.3-4.879l-.8.231c.461,1.6.894,3.231,1.289,4.847ZM498.828,235.56c.465-1.6.97-3.206,1.5-4.785l-.793-.266c-.534,1.589-1.042,3.21-1.51,4.817Zm237.81-4.392.793-.264c-.529-1.592-1.1-3.2-1.694-4.77l-.782.3C735.546,227.993,736.112,229.587,736.638,231.168Zm-234.616-5.113c.594-1.555,1.226-3.114,1.878-4.635l-.768-.329c-.657,1.531-1.293,3.1-1.891,4.666Zm231.06-4.291.769-.327c-.657-1.544-1.355-3.1-2.074-4.614l-.755.358c.715,1.507,1.408,3.049,2.061,4.584Zm-227.118-4.9c.716-1.5,1.471-3,2.247-4.472l-.739-.39c-.781,1.479-1.542,2.993-2.262,4.5Zm222.814-4.177.74-.388c-.779-1.485-1.6-2.975-2.439-4.429l-.724.418c.834,1.444,1.649,2.925,2.423,4.4Zm-218.14-4.673c.836-1.439,1.711-2.879,2.6-4.279l-.705-.449c-.9,1.41-1.778,2.859-2.619,4.308Zm213.118-4.023.707-.447c-.9-1.418-1.834-2.836-2.787-4.216l-.688.475C721.934,201.172,722.865,202.581,723.756,203.989Zm-207.744-4.428c.948-1.366,1.937-2.732,2.938-4.058l-.667-.5c-1.008,1.335-2,2.71-2.957,4.086Zm202.042-3.833.668-.5c-1.007-1.341-2.055-2.679-3.115-3.977l-.648.529C716.012,193.068,717.053,194.4,718.054,195.729Zm-196.005-4.165c1.054-1.286,2.15-2.569,3.255-3.812l-.625-.555c-1.113,1.252-2.215,2.543-3.277,3.838Zm189.662-3.609.626-.554c-1.11-1.254-2.261-2.5-3.422-3.713l-.6.579c1.153,1.2,2.3,2.443,3.4,3.688Zm-183-3.884c1.157-1.2,2.351-2.392,3.551-3.541l-.578-.6c-1.208,1.158-2.411,2.357-3.575,3.565Zm176.059-3.354.58-.6c-1.206-1.161-2.453-2.313-3.706-3.426l-.555.625c1.245,1.106,2.484,2.251,3.682,3.4Zm-168.817-3.585c1.249-1.1,2.536-2.2,3.824-3.247l-.528-.648c-1.3,1.058-2.593,2.157-3.85,3.269Zm161.321-3.072.53-.647c-1.3-1.062-2.632-2.111-3.967-3.117l-.5.667c1.326,1,2.652,2.042,3.94,3.1Zm-153.544-3.267c1.333-1,2.7-1.987,4.074-2.932l-.474-.688c-1.379.951-2.759,1.944-4.1,2.951Zm145.543-2.766.476-.687c-1.378-.955-2.792-1.893-4.2-2.789l-.448.706C686.5,166.148,687.9,167.079,689.272,168.028ZM551.992,165.1c1.409-.89,2.855-1.763,4.3-2.6l-.418-.724c-1.452.838-2.908,1.717-4.327,2.613Zm128.825-2.437.419-.723c-1.445-.838-2.929-1.659-4.409-2.44l-.39.739c1.471.776,2.944,1.592,4.38,2.424ZM560.691,160.08c1.476-.773,2.989-1.528,4.5-2.241l-.358-.755c-1.517.718-3.041,1.478-4.526,2.256Zm111.275-2.09.36-.755c-1.507-.719-3.051-1.417-4.589-2.076l-.329.768c1.527.654,3.061,1.348,4.558,2.062Zm-102.193-2.209c1.536-.652,3.106-1.282,4.666-1.871l-.3-.782c-1.57.593-3.151,1.227-4.7,1.883Zm93-1.728.3-.781c-1.564-.6-3.163-1.169-4.753-1.7l-.266.793c1.579.53,3.167,1.1,4.721,1.691Zm-83.593-1.822c1.58-.524,3.191-1.022,4.791-1.482l-.231-.8c-1.61.462-3.233.964-4.823,1.492Zm74.086-1.367.233-.8c-1.608-.468-3.248-.909-4.875-1.312l-.2.811c1.617.4,3.246.838,4.843,1.3Zm-64.448-1.4c1.614-.394,3.261-.76,4.9-1.089l-.165-.82c-1.645.331-3.3.7-4.928,1.1Zm54.714-1.006.168-.819c-1.639-.336-3.309-.642-4.965-.912l-.135.825c1.645.268,3.3.573,4.932.906Zm-44.883-.972c1.644-.262,3.315-.494,4.967-.69l-.1-.83c-1.663.2-3.346.431-5,.695Zm34.987-.641.1-.83c-1.663-.2-3.353-.374-5.022-.51l-.068.833C630.3,146.472,631.982,146.642,633.634,146.843ZM608.6,146.3c1.657-.129,3.342-.227,5.006-.29l-.032-.835c-1.676.064-3.371.162-5.039.292Zm15.035-.274.034-.835c-1.671-.069-3.37-.105-5.047-.108v.836C620.291,145.926,621.978,145.962,623.639,146.031Z" transform="translate(-493.032 -135.325)"/><ellipse class="e" cx="80.664" cy="80.664" rx="80.664" ry="80.664" transform="translate(88.997 52.068)"/><ellipse class="g" cx="42.84" cy="58.931" rx="42.84" ry="58.931" transform="translate(155.45 73.802)"/><ellipse class="b" cx="11.956" cy="18.808" rx="11.956" ry="18.808" transform="translate(200.535 126.41)"/><ellipse class="f" cx="7.941" cy="7.941" rx="7.941" ry="7.941" transform="translate(3.238 79.744)"/><ellipse class="f" cx="11.703" cy="11.703" rx="11.703" ry="11.703" transform="translate(91.206 0)"/><ellipse class="f" cx="7.941" cy="7.941" rx="7.941" ry="7.941" transform="translate(102.72 251.273)"/></g></g></svg>