<svg xmlns="http://www.w3.org/2000/svg" width="65.751" height="66.452" viewBox="0 0 65.751 66.452"><defs><style>.a{fill:#fff;}.b{fill:#e6e6e6;}.c{fill:#2154ab;fill-rule:evenodd;}</style></defs><g transform="translate(-1418.731 -980.366)"><path class="a" d="M656.019,370.931c43.838-.783,43.831-65.675,0-66.452C612.181,305.262,612.188,370.154,656.019,370.931Z" transform="translate(795.588 675.887)"/><path class="b" d="M656.019,370.931c43.838-.783,43.831-65.675,0-66.452C612.181,305.262,612.188,370.154,656.019,370.931Zm0-64.437c41.181.736,41.174,61.694,0,62.424-41.18-.736-41.173-61.695,0-62.425Z" transform="translate(795.588 675.887)"/><path class="c" d="M683.345,347.091a18.486,18.486,0,0,1-15.636,18.239l0-12.9h4.316l.822-5.34h-5.139c-.173-4.447-.346-6.942,5.355-6.344v-4.54c-8.54-1.872-12.1,2.439-11.143,10.884h-4.706v5.34h4.706v12.892c-22.15-3.394-19.547-36.772,2.888-36.686a18.494,18.494,0,0,1,18.533,18.457Z" transform="translate(786.641 666.609)"/></g></svg>