<svg xmlns="http://www.w3.org/2000/svg" width="120" height="120" viewBox="0 0 120 120"><defs><style>.a{fill:#6772e5;}.b{fill:#fff;}</style></defs><g transform="translate(-982 -3341)"><g transform="translate(982 3341)"><rect class="a" width="120" height="120" rx="10"/></g><g transform="translate(995.6 3381.8)"><path class="b" d="M387.18-317.444c-1.079.243-2.478.547-3.071.684l-1.11.228v5.107l3.086-.669c1.687-.35,3.116-.654,3.192-.654a15.649,15.649,0,0,0,.106-2.584,15.238,15.238,0,0,0-.106-2.569C389.2-317.885,388.275-317.687,387.18-317.444Z" transform="translate(-338.94 317.9)"/><path class="b" d="M213.388-297.248l-2.888.623v22.512l.562,1.14a6.344,6.344,0,0,0,3.131,3.07c1,.486,1.049.486,3.223.471a9.062,9.062,0,0,0,3.116-.3l.912-.3.046-2.584.03-2.6-.79.213a4.591,4.591,0,0,1-2.979-.2,2.377,2.377,0,0,1-.775-.821c-.3-.547-.319-.775-.319-5.761v-5.183h4.864v-5.32H216.7l-.091-1.49c-.061-.806-.106-2.067-.106-2.812a3.928,3.928,0,0,0-.106-1.307C216.322-297.886,214.984-297.6,213.388-297.248Z" transform="translate(-192.66 300.942)"/><path class="b" d="M99.79-263.642c-4.408.7-6.931,3.648-6.627,7.691a4.986,4.986,0,0,0,1.672,3.526c.958.9,2.052,1.474,4.682,2.462,2.858,1.094,3.618,1.7,3.42,2.8-.228,1.216-1.672,1.657-4.1,1.246a17.049,17.049,0,0,1-4.53-1.4,6.453,6.453,0,0,0-.806-.365,28.8,28.8,0,0,0-.046,2.994l.046,2.979,1.064.365c3.374,1.17,7.691,1.277,10.26.258a8.682,8.682,0,0,0,2.842-1.885c2.538-2.63,2.219-7.509-.608-9.591a17.073,17.073,0,0,0-4.317-2.006c-2.66-.927-3.238-1.353-3.238-2.341,0-.927.806-1.414,2.326-1.414a17.045,17.045,0,0,1,6.08,1.444c.243.106.258-.061.228-2.827l-.046-2.949-.821-.274A19.314,19.314,0,0,0,99.79-263.642Z" transform="translate(-93.138 271.987)"/><path class="b" d="M451.348-263.719a7.161,7.161,0,0,0-2.751,1.338c-.274.243-.578.41-.654.365a1.9,1.9,0,0,1-.258-.775l-.091-.684H442v15.048c0,11.963.046,15.018.2,14.972.2-.076,5.974-1.292,6.111-1.292.046,0,.076-1.642.076-3.648s.046-3.648.091-3.648a2.12,2.12,0,0,1,.517.3,6.394,6.394,0,0,0,3.572,1.186,7.2,7.2,0,0,0,3.967-.76c2.356-1.14,4.119-3.663,4.895-7.023a18.669,18.669,0,0,0,.243-3.967c-.015-3.39-.213-4.408-1.368-6.749C458.523-262.655,454.844-264.57,451.348-263.719Zm1.87,5.913a5.254,5.254,0,0,1,1.885,2.523,13.254,13.254,0,0,1,.061,5.989,4.5,4.5,0,0,1-3.207,3.223,4.459,4.459,0,0,1-2.949-.7l-.623-.441v-4.165c0-2.28-.046-4.469-.091-4.849-.091-.654-.061-.73.41-1.155a3.583,3.583,0,0,1,2.812-.882A2.615,2.615,0,0,1,453.218-257.806Z" transform="translate(-388.971 272.125)"/><path class="b" d="M589.653-263.484c-3.876.7-6.7,3.77-7.752,8.406a21.715,21.715,0,0,0,0,6.582c.912,4.074,3.055,6.6,6.582,7.752,1.292.426,1.474.441,4.013.426a12.076,12.076,0,0,0,5.943-1.064l.9-.41v-2.493c0-2.326-.015-2.508-.258-2.4a14.221,14.221,0,0,1-5.746,1.155c-1.9,0-2.9-.228-3.815-.9A4.174,4.174,0,0,1,588.042-249l-.03-.578,6.354-.046,6.339-.03v-1.87c0-6.187-2.4-10.427-6.643-11.75A14.132,14.132,0,0,0,589.653-263.484Zm3.07,5.3a3.521,3.521,0,0,1,.942.638,5.482,5.482,0,0,1,1.064,2.569l.091.76H587.89l.091-.882a3.608,3.608,0,0,1,2.083-3.131A3.733,3.733,0,0,1,592.724-258.179Z" transform="translate(-507.394 271.829)"/><path class="b" d="M306.558-262.5a3.762,3.762,0,0,0-2.1,1.353,2.381,2.381,0,0,1-.562.623c-.061.015-.2-.4-.3-.9l-.182-.912H298v22.5h6.232v-15.322l.578-.517a3.922,3.922,0,0,1,3.207-1l1.231.046v-2.842a14,14,0,0,0-.152-2.934A7.237,7.237,0,0,0,306.558-262.5Z" transform="translate(-266.86 270.98)"/><path class="b" d="M383-249.752V-238.5h6.384V-261H383Z" transform="translate(-338.94 269.649)"/></g></g></svg>