<svg xmlns="http://www.w3.org/2000/svg" width="635.777" height="388.66" viewBox="0 0 635.777 388.66"><defs><style>.a{fill:#0388ee;}.b{fill:#f2f2f2;}.c{fill:#fff;}.d{fill:#e8b8bf;}.e{fill:#2f2e41;}.f{fill:#0cbc35;}.g{fill:#3f3d56;}.h{fill:#2a2c48;}.i{fill:#ccc;}</style></defs><g transform="translate(-1284.623 -2543.73)"><path class="a" d="M229.307,319.627c0,88.991,145.6,164.007,344.27,187.037,32.265,3.73,65.044,6.034,98.008,6.886,1.6.043,3.207.086,4.822.117q12.869.286,25.931.289,22.712,0,44.886-.868,12.3-.471,24.4-1.2c31.839-1.921,93.263-9.79,93.263-9.79l.2-361.8s-79.148-15-162.746-15C441.095,125.3,229.307,212.3,229.307,319.627Z" transform="translate(1055.316 2418.434)"/><g transform="translate(1296 2582)"><path class="b" d="M298.1,712.362l.019.124c.023-.12.044-.244.065-.365.038-.2.071-.393.1-.591a48.1,48.1,0,0,0-1.967-23.038q-.726-2.168-1.655-4.257a47.194,47.194,0,0,0-9.891-14.453,20.359,20.359,0,0,0-4.588-3.52c-.248-.131-.5-.256-.752-.371a8.392,8.392,0,0,0-5.033-.729,6.864,6.864,0,0,0-1.792.6c-.2.1-.39.2-.578.316a9.946,9.946,0,0,0-4.353,6.66,15.537,15.537,0,0,0,.219,6.057q.061.285.13.567a31.566,31.566,0,0,0,1.253,3.892C274.3,696.167,285.085,707.624,298.1,712.362Z" transform="translate(72.842 -400.728)"/><path class="c" d="M269.127,666.4q5.874,8.441,11.1,17.309t9.752,18.1q2.537,5.17,4.852,10.444c.171.389-.406.728-.579.333q-4.134-9.416-8.973-18.5t-10.351-17.766q-3.086-4.862-6.377-9.59c-.245-.353.334-.685.579-.333Z" transform="translate(76.359 -401.326)"/><path class="c" d="M295.987,692.283a18.338,18.338,0,0,0,12.055,6.987,17.438,17.438,0,0,0,4.024.08c.429-.041.432.628.007.668a19,19,0,0,1-13.778-4.354,18.1,18.1,0,0,1-2.887-3.047c-.257-.343.323-.674.579-.334Z" transform="translate(45.309 -414.181)"/><path class="c" d="M272.98,718.5a15.353,15.353,0,0,0,1.694-3.131,16.2,16.2,0,0,0,1.041-7.952q-.726-2.168-1.655-4.257a.382.382,0,0,0-.031.377,14.661,14.661,0,0,1,.933,3.253,15.479,15.479,0,0,1-2.562,11.379.272.272,0,0,0-.044.262.364.364,0,0,0,.624.069Z" transform="translate(93.449 -419.653)"/><path class="c" d="M305.194,666.386a15.542,15.542,0,0,1-.685,9.655.336.336,0,0,1-.456.124.342.342,0,0,1-.124-.455,14.791,14.791,0,0,0,.62-9.148.334.334,0,0,1,.644-.176Z" transform="translate(47.736 -401.275)"/><path class="b" d="M261.05,674.608l-.041.118c.076-.1.152-.2.227-.293.125-.156.245-.315.364-.476a48.1,48.1,0,0,0,8.96-21.316q.364-2.258.512-4.538a47.2,47.2,0,0,0-2.046-17.393,20.36,20.36,0,0,0-2.427-5.248c-.159-.232-.322-.458-.494-.678a8.392,8.392,0,0,0-4.118-2.984,6.862,6.862,0,0,0-1.866-.3c-.221-.007-.44,0-.658.011a9.946,9.946,0,0,0-6.948,3.876,15.537,15.537,0,0,0-2.62,5.465q-.079.28-.148.562a31.569,31.569,0,0,0-.7,4.028C247.495,649.21,251.724,664.365,261.05,674.608Z" transform="translate(109.977 -379.102)"/><path class="c" d="M267.169,621.306q1.281,10.2,1.787,20.484t.227,20.56q-.155,5.757-.555,11.5c-.029.424-.7.456-.667.027q.713-10.259.647-20.551t-.914-20.541q-.474-5.739-1.192-11.454c-.054-.426.614-.451.667-.027Z" transform="translate(102.939 -378.854)"/><path class="c" d="M268.621,640.355a18.338,18.338,0,0,0,7.43,11.787,17.429,17.429,0,0,0,3.527,1.94c.4.163.091.756-.3.595a19,19,0,0,1-10.179-10.256,18.1,18.1,0,0,1-1.141-4.039c-.069-.423.6-.447.667-.027Z" transform="translate(91.727 -388.315)"/><path class="c" d="M249.482,687.432a15.348,15.348,0,0,0,2.955-1.986,16.2,16.2,0,0,0,4.615-6.559q.364-2.258.512-4.538a.382.382,0,0,0-.2.32,14.659,14.659,0,0,1-.684,3.314,15.479,15.479,0,0,1-7.555,8.887.271.271,0,0,0-.161.211.364.364,0,0,0,.521.352Z" transform="translate(123.486 -405.346)"/><path class="c" d="M263.222,628.148a15.542,15.542,0,0,1-5.091,8.232.336.336,0,0,1-.461-.1.342.342,0,0,1,.1-.461,14.791,14.791,0,0,0,4.8-7.813.334.334,0,0,1,.652.144Z" transform="translate(113.463 -382.208)"/><path class="b" d="M208.184,713.152l-.1.078c.116-.04.234-.082.349-.125.189-.065.376-.133.563-.2a48.1,48.1,0,0,0,19.029-13.135q1.523-1.706,2.876-3.548a47.2,47.2,0,0,0,7.644-15.757,20.361,20.361,0,0,0,.781-5.729c-.009-.28-.024-.559-.051-.837a8.393,8.393,0,0,0-1.863-4.732A6.866,6.866,0,0,0,236,667.9c-.182-.125-.37-.238-.561-.345a9.945,9.945,0,0,0-7.942-.476,15.536,15.536,0,0,0-5.15,3.194q-.217.194-.427.394a31.571,31.571,0,0,0-2.758,3.018C210.441,684.451,205.843,699.5,208.184,713.152Z" transform="translate(162.554 -401.436)"/><path class="c" d="M241.862,668.911q-4.416,9.287-9.526,18.221t-10.881,17.446q-3.231,4.767-6.663,9.393c-.253.341-.833.009-.577-.337q6.125-8.26,11.613-16.968t10.293-17.8q2.691-5.091,5.164-10.293c.184-.388.76-.049.577.337Z" transform="translate(156.676 -402.393)"/><path class="c" d="M239.131,674.514a18.338,18.338,0,0,0-.088,13.933,17.426,17.426,0,0,0,1.927,3.534c.248.352-.331.686-.577.337a19,19,0,0,1-3.053-14.123,18.1,18.1,0,0,1,1.214-4.018c.17-.393.745-.054.577.337Z" transform="translate(146.018 -405.174)"/><path class="c" d="M224.633,732.226a15.349,15.349,0,0,0,3.559-.082,16.194,16.194,0,0,0,7.421-3.041q1.523-1.706,2.876-3.548a.382.382,0,0,0-.343.16,14.661,14.661,0,0,1-2.362,2.424,15.479,15.479,0,0,1-11.152,3.419.272.272,0,0,0-.249.091.364.364,0,0,0,.249.577Z" transform="translate(154.969 -430.774)"/><path class="c" d="M215.8,681.727a15.543,15.543,0,0,1-8.724,4.194c-.18.024-.332-.171-.334-.334a.342.342,0,0,1,.334-.334,14.791,14.791,0,0,0,8.251-4C215.641,680.957,216.114,681.428,215.8,681.727Z" transform="translate(186.397 -408.728)"/><path class="d" d="M345.909,529.916a5.408,5.408,0,0,1-.8-8.254l-2.1-46.827,10.68,1.2-.62,45.8a5.437,5.437,0,0,1-7.166,8.079Z" transform="translate(-20.75 -306.272)"/><path class="d" d="M216.651,578.58l-6.079,1.068-6.008-22.937,7.965-1.577Z" transform="translate(89.025 -275.668)"/><path class="e" d="M0,7.494H19.4V0H7.494A7.494,7.494,0,0,0,0,7.494H0Z" transform="translate(287.568 304.303) rotate(-9.971)"/><path class="d" d="M180.528,584.269h-6.172l-2.936-23.806h9.109Z" transform="translate(141.832 -278.314)"/><path class="e" d="M0,7.494H19.4V0H7.494A7.494,7.494,0,0,0,0,7.494H0Z" transform="translate(304.287 304.192)"/><path class="e" d="M374.991,653.6a2.394,2.394,0,0,0,.288-.017l7.264-.6a2.457,2.457,0,0,0,2.136-2.849l-6.708-37.6,4.533-23.9a.819.819,0,0,1,1.62.081l5.667,63.747a2.479,2.479,0,0,0,2.623,2.234l6.844-.255a2.461,2.461,0,0,0,2.284-2.331l.46-76.4-35.482-4.435-2.479,38.28.01.041,8.553,42.124a2.46,2.46,0,0,0,2.387,1.878Z" transform="translate(-78.886 -354.162)"/><ellipse class="d" cx="12.365" cy="12.365" rx="12.365" ry="12.365" transform="translate(299.053 113.489)"/><path class="f" d="M361.713,508.071a10.124,10.124,0,0,0,5.466-1.563c5.989-3.743,12.792-2.256,16.314-1.036a2.457,2.457,0,0,0,2.125-.242,2.422,2.422,0,0,0,1.12-1.788l6.4-57.2a20.044,20.044,0,0,0-13.727-21.425h0q-.509-.16-1.035-.3a19.92,19.92,0,0,0-16.6,2.881,20.239,20.239,0,0,0-8.642,14.777l-5.392,57.585a2.42,2.42,0,0,0,.769,2.017C350.406,503.521,355.892,508.071,361.713,508.071Z" transform="translate(-61.946 -280.938)"/><path class="f" d="M341.077,466.785l14.45-1.589A2.878,2.878,0,0,0,358,461.605l-3.678-14.018a7.994,7.994,0,0,0-15.886,1.794l-.546,14.436a2.878,2.878,0,0,0,3.191,2.969Z" transform="translate(-21.807 -289.217)"/><path class="d" d="M411.615,525.985a5.408,5.408,0,0,1,.2-8.29l3.56-46.739,10.465,2.356L419.7,518.828a5.437,5.437,0,0,1-8.087,7.157Z" transform="translate(-125.756 -304.346)"/><path class="f" d="M419.276,461.693a2.875,2.875,0,0,0,.915-2.215l-.546-14.436a7.994,7.994,0,1,0-15.886-1.794l-3.678,14.018a2.878,2.878,0,0,0,2.47,3.591L417,462.447A2.875,2.875,0,0,0,419.276,461.693Z" transform="translate(-115.174 -287.062)"/><path class="e" d="M370.91,386.6a2.861,2.861,0,0,0,.653-.076l.063-.015c10.871-1.663,13.274-7.96,13.8-10.59.546-2.723-.076-5.351-1.48-6.371a7.838,7.838,0,0,0-.366-6.374c-1.76-3.162-5.578-4.231-6.091-4.361-3.05-2.25-6.7-.748-7.363-.443-5.9-2.183-8.154-.366-8.562.04-2.637.474-4.244,1.492-4.778,3.028-1,2.885,2.167,6.474,2.3,6.625l.07.078,4.722.225a3.2,3.2,0,0,1,3.011,3.683h0a14.9,14.9,0,0,1-.484,1.689c-.806,2.52-1.411,4.673-.631,5.492a1.264,1.264,0,0,0,1.322.229c.738-.2,1.24-.156,1.489.123.388.433.269,1.528-.333,3.084a2.889,2.889,0,0,0,.527,2.944,2.8,2.8,0,0,0,2.127.99Z" transform="translate(-58.758 -247.911)"/><path class="g" d="M546.438,386.822h60.914a8.568,8.568,0,0,0,8.558-8.558V286.726a8.568,8.568,0,0,0-8.558-8.558H546.438a8.568,8.568,0,0,0-8.558,8.558v91.538A8.568,8.568,0,0,0,546.438,386.822Zm60.914-107.648a7.56,7.56,0,0,1,7.551,7.551v91.538a7.56,7.56,0,0,1-7.551,7.551H546.438a7.56,7.56,0,0,1-7.551-7.551V286.726a7.56,7.56,0,0,1,7.551-7.551Z" transform="translate(-380.309 -208.611)"/><path class="h" d="M569.159,337.279h42.287A4.284,4.284,0,0,0,615.726,333V312.863a4.284,4.284,0,0,0-4.279-4.279H569.159a4.284,4.284,0,0,0-4.279,4.279V333A4.284,4.284,0,0,0,569.159,337.279Z" transform="translate(-393.716 -223.715)"/><path class="i" d="M575.407,395.139h36.246a4.027,4.027,0,1,0,0-8.055H575.407a4.027,4.027,0,0,0,0,8.055Z" transform="translate(-396.944 -262.697)"/><path class="i" d="M575.407,425.139h36.246a4.027,4.027,0,1,0,0-8.055H575.407a4.027,4.027,0,0,0,0,8.055Z" transform="translate(-396.944 -277.594)"/><path class="i" d="M575.407,455.139h36.246a4.027,4.027,0,1,0,0-8.055H575.407a4.027,4.027,0,0,0,0,8.055Z" transform="translate(-396.944 -292.491)"/><path class="g" d="M841.438,488.822h60.914a8.568,8.568,0,0,0,8.558-8.558V388.726a8.568,8.568,0,0,0-8.558-8.558H841.438a8.568,8.568,0,0,0-8.558,8.558v91.538A8.568,8.568,0,0,0,841.438,488.822Zm60.914-107.648a7.56,7.56,0,0,1,7.551,7.551v91.538a7.56,7.56,0,0,1-7.551,7.551H841.438a7.56,7.56,0,0,1-7.551-7.551V388.726a7.56,7.56,0,0,1,7.551-7.551Z" transform="translate(-823.818 -259.262)"/><path class="i" d="M870.407,417.139h36.246a4.027,4.027,0,0,0,0-8.055H870.407a4.027,4.027,0,1,0,0,8.055Z" transform="translate(-840.454 -273.621)"/><path class="i" d="M870.407,447.139h36.246a4.027,4.027,0,0,0,0-8.055H870.407a4.027,4.027,0,1,0,0,8.055Z" transform="translate(-840.454 -288.519)"/><path class="h" d="M864.159,503.279h42.287A4.284,4.284,0,0,0,910.726,499V478.863a4.284,4.284,0,0,0-4.279-4.279H864.159a4.284,4.284,0,0,0-4.279,4.279V499A4.284,4.284,0,0,0,864.159,503.279Z" transform="translate(-837.226 -306.147)"/><path class="i" d="M870.407,559.139h36.246a4.027,4.027,0,0,0,0-8.055H870.407a4.027,4.027,0,1,0,0,8.055Z" transform="translate(-840.454 -344.135)"/><path class="g" d="M767.438,234.086h60.914a8.568,8.568,0,0,0,8.558-8.558v-56.8a8.568,8.568,0,0,0-8.558-8.558H767.438a8.568,8.568,0,0,0-8.558,8.558v56.8A8.568,8.568,0,0,0,767.438,234.086Zm60.914-72.912a7.56,7.56,0,0,1,7.551,7.551v56.8a7.56,7.56,0,0,1-7.551,7.551H767.438a7.56,7.56,0,0,1-7.551-7.551v-56.8a7.56,7.56,0,0,1,7.551-7.551Z" transform="translate(-712.565 -150.015)"/><path class="i" d="M796.407,263.639h36.246a4.027,4.027,0,0,0,0-8.055H796.407a4.027,4.027,0,0,0,0,8.055Z" transform="translate(-729.2 -197.397)"/><path class="i" d="M796.407,233.639h36.246a4.027,4.027,0,0,0,0-8.055H796.407a4.027,4.027,0,0,0,0,8.055Z" transform="translate(-729.2 -182.499)"/><path class="i" d="M796.407,203.639h36.246a4.027,4.027,0,0,0,0-8.055H796.407a4.027,4.027,0,0,0,0,8.055Z" transform="translate(-729.2 -167.602)"/><path class="f" d="M11.579,0A11.579,11.579,0,1,1,0,11.579,11.579,11.579,0,0,1,11.579,0Z" transform="translate(151.026 60.411)"/><path class="c" d="M676.723,283.088a1.2,1.2,0,0,1-.723-.24l-.013-.01-2.721-2.083a1.209,1.209,0,0,1,1.47-1.919l1.763,1.351,4.165-5.432a1.209,1.209,0,0,1,1.695-.224l-.026.035.027-.035a1.21,1.21,0,0,1,.224,1.7l-4.9,6.389A1.21,1.21,0,0,1,676.723,283.088Z" transform="translate(-515.15 -206.681)"/><ellipse class="g" cx="11.579" cy="11.579" rx="11.579" ry="11.579" transform="translate(0 112.263)"/><path class="c" d="M976.723,386.088a1.2,1.2,0,0,1-.722-.24l-.013-.01-2.721-2.083a1.209,1.209,0,1,1,1.471-1.919l1.763,1.351,4.165-5.432a1.209,1.209,0,0,1,1.695-.224l-.026.035.027-.035a1.21,1.21,0,0,1,.224,1.7l-4.9,6.389A1.21,1.21,0,0,1,976.723,386.088Z" transform="translate(-966.176 -257.829)"/><ellipse class="g" cx="11.579" cy="11.579" rx="11.579" ry="11.579" transform="translate(36.75)"/><path class="c" d="M903.723,163.088a1.2,1.2,0,0,1-.722-.24l-.013-.01-2.721-2.083a1.209,1.209,0,1,1,1.47-1.919l1.763,1.352,4.165-5.432a1.209,1.209,0,0,1,1.695-.224l-.026.035.027-.035a1.21,1.21,0,0,1,.224,1.695l-4.9,6.389A1.209,1.209,0,0,1,903.723,163.088Z" transform="translate(-856.426 -147.092)"/><path class="g" d="M194.623,759.007h191.8a.5.5,0,0,0,0-1.007h-191.8a.5.5,0,1,0,0,1.007Z" transform="translate(21.727 -446.886)"/></g></g></svg>