<svg xmlns="http://www.w3.org/2000/svg" width="624.078" height="402" viewBox="0 0 624.078 402"><defs><style>.a{fill:#0388ee;}.b{fill:#3f3d56;}.c{fill:#a0616a;}.d{fill:#2f2e41;}.e{fill:#0cbc35;}.f{opacity:0.2;}.g{fill:#2a2c48;}.h{fill:#e8b8bf;}.i{fill:#dfb5bb;}.j{fill:#cfcce0;}</style></defs><g transform="translate(1 -2151)"><g transform="translate(-2718 2442.176)"><path class="a" d="M567.776,0A153,153,0,0,1,673.635,42.533l50.09,48a153,153,0,0,1,0,220.934l-50.09,48A153,153,0,0,1,567.776,402H199L198,0Z" transform="translate(2519 -291.176)"/></g><g transform="translate(190 2218.609)"><rect class="b" width="108.382" height="0.899" transform="translate(324.696 204.076)"/><path class="c" d="M771.744,379.88l3.148,16.639,6.746,1.8-1.8-19.788Z" transform="translate(-424.678 -208.277)"/><path class="c" d="M855.744,379.88l3.148,16.639,6.746,1.8-1.8-19.788Z" transform="translate(-470.901 -208.277)"/><path class="d" d="M894.431,584.236s-7.2-.45-7.2,1.8-3.6,9.894-3.6,9.894-2.7,8.994,4.5,8.095,11.693-8.994,11.693-8.994l-1.8-8.545Z" transform="translate(-540.169 -399.141)"/><path class="d" d="M982.908,581.909s-4.8-3.086-4.457-1.029.686,7.542,3.085,7.885,9.6,2.4,9.942,3.086,8.571,3.428,8.571-1.029-5.143-7.885-5.143-7.885l-5.828-4.457s-3.771-.343-4.457,2.057S982.908,581.909,982.908,581.909Z" transform="translate(-592.606 -395.985)"/><path class="c" d="M873.75,333.526s-7.645-11.243-10.344-7.645,6.746,10.343,6.746,10.343Z" transform="translate(-529.042 -256.602)"/><path class="e" d="M882.545,352.892c-.45-.45-8.545-8.095-8.545-8.095l5.846-4.047,6.746,6.746Z" transform="translate(-535.138 -265.175)"/><path class="e" d="M888.866,290.25s-5.846.45-5.4,5.4,4.272,21.362,4.272,21.362l2.249,4.5S898.311,295.647,888.866,290.25Z" transform="translate(-540.336 -237.386)"/><path class="d" d="M888.41,226.085l1.619,5.4h20.282l.585-5.846,1.754,5.846h2.608l.585-5.846,1.754,5.846h2.743l-2.579-6.214a50.089,50.089,0,0,1-2.719-9.193,17.32,17.32,0,0,0-16.962-13.825h0q-.359,0-.714.014c-11.368.461-18.649,12.366-14.287,22.874l2.633,6.343h2.159Z" transform="translate(-539.429 -188.961)"/><path class="d" d="M882.992,359.75s-13.941,11.693-9.894,27.433,5.4,65.209,5.4,65.209l13.941-1.349V388.982l19.338,36.877,3.148,26.533,15.74-2.7-7.2-32.38L909.629,376.04l-1.453-11.908Z" transform="translate(-534.236 -275.63)"/><circle class="c" cx="9.444" cy="9.444" r="9.444" transform="translate(348.98 18.686)"/><path class="c" d="M905,248.1s4.047,14.841,1.8,16.64,15.74-5.846,15.74-5.846-7.645-8.545-6.746-12.142Z" transform="translate(-552.197 -213.448)"/><path class="e" d="M913.916,264.476s-7.2,6.194-14.169,6.695c0,0-9.217,5-8.767,5.448s1.8,6.746,1.8,6.746,2.249,3.472,2.249,10.793c0,.9-3.148,13.492-3.148,13.492l26.533,3.6s7.2-23.385,7.645-31.48,3.148-16.64-.9-17.089S913.916,264.476,913.916,264.476Z" transform="translate(-544.474 -222.18)"/><path class="e" d="M957.846,266.047s3.148-2.7,4.947,3.6,8.994,26.084,7.2,30.131S957.4,321.812,957.4,321.812l-5.4-3.6,10.793-20.237-6.3-14.391Z" transform="translate(-578.06 -223.751)"/><path class="c" d="M944.351,381.75s-13.941,8.545-9.444,10.343,12.142-7.645,12.142-7.645Z" transform="translate(-568.162 -287.737)"/><path class="d" d="M774,38.5v9.444h3.6l1.349-4.047.337,4.047H789.29L790.64,43.9l.337,4.047h4.16V38.5Z" transform="translate(-425.919 -21.163)"/><path class="f" d="M894.141,310.25s-.9,8.994.45,10.793S894.141,310.25,894.141,310.25Z" transform="translate(-546.06 -248.391)"/><rect class="b" width="190.68" height="0.899" transform="translate(79.6 218.81)"/><path class="g" d="M533.811,433.17l-55.324,55.324a45.1,45.1,0,0,1-63.779,0c-.747-.747-1.466-1.516-2.15-2.307a43.555,43.555,0,0,1-3.143-4.047,44.422,44.422,0,0,1-7.124-17.089q-.384-2-.58-4.047-.209-2.179-.211-4.4a45.309,45.309,0,0,1,1.673-12.241q.573-2.057,1.345-4.047a45,45,0,0,1,10.191-15.6l24.136-24.136a6.745,6.745,0,1,1,9.539,9.538l-24.136,24.136a31.871,31.871,0,0,0-4.753,6.062,31.384,31.384,0,0,0-4.5,16.289,32.411,32.411,0,0,0,.3,4.4,30.762,30.762,0,0,0,.836,4.047,31.6,31.6,0,0,0,52.819,13.905l13.905-13.905,24.734-24.734,16.684-16.684a31.661,31.661,0,0,0,3.539-40.484,6.748,6.748,0,1,1,11.068-7.722A45.177,45.177,0,0,1,533.811,433.17Z" transform="translate(-275.13 -282.668)"/><path class="g" d="M710.464,217.87q0,.5-.014,1a44.891,44.891,0,0,1-3.746,17.089,43.535,43.535,0,0,1-2.024,4.047,45.223,45.223,0,0,1-7.425,9.754L673.12,273.9a6.745,6.745,0,0,1-9.539-9.539l24.136-24.136c.072-.072.144-.144.211-.216a31.424,31.424,0,0,0,9.026-21.137c.013-.333.018-.666.018-1q0-1.538-.144-3.049a31.573,31.573,0,0,0-9.111-19.3c-.481-.481-.971-.944-1.479-1.385a31.61,31.61,0,0,0-41.743,0c-.508.441-1,.9-1.48,1.385l-55.324,55.324a31.649,31.649,0,0,0,0,44.7,6.745,6.745,0,0,1-9.538,9.538,45.149,45.149,0,0,1,0-63.779l55.324-55.324a45.146,45.146,0,0,1,70.25,8.153,43.3,43.3,0,0,1,2.235,4.047,44.715,44.715,0,0,1,4.4,16.64Q710.462,216.339,710.464,217.87Z" transform="translate(-365.082 -172.75)"/><path class="g" d="M231.873,680.76c-2.06,7.616-9.117,12.332-9.117,12.332s-3.716-7.631-1.656-15.247,9.117-12.333,9.117-12.333S233.933,673.144,231.873,680.76Z" transform="translate(-175.516 -443.886)"/><path class="g" d="M203.379,680.76c2.06,7.616,9.117,12.332,9.117,12.332s3.716-7.631,1.656-15.247-9.117-12.333-9.117-12.333S201.319,673.144,203.379,680.76Z" transform="translate(-165.764 -443.886)"/><path class="b" d="M193.584,688.476c5.653,5.5,6.344,13.963,6.344,13.963s-8.475-.463-14.128-5.966-6.344-13.963-6.344-13.963S187.931,682.973,193.584,688.476Z" transform="translate(-152.942 -453.24)"/><path class="b" d="M231.322,688.476c-5.653,5.5-6.344,13.963-6.344,13.963s8.475-.463,14.128-5.966,6.344-13.963,6.344-13.963S236.975,682.973,231.322,688.476Z" transform="translate(-177.993 -453.24)"/><path class="g" d="M781.489,260.232a9.1,9.1,0,0,1-.179,1.8,9.013,9.013,0,1,1,.179-1.8Z" transform="translate(-474.332 -215.913)"/><path class="g" d="M486.489,563.233a9.1,9.1,0,0,1-.18,1.8,9.012,9.012,0,1,1,.18-1.8Z" transform="translate(-311.998 -382.649)"/><rect class="b" width="103.885" height="0.899" transform="translate(0 248.491)"/><path class="d" d="M403.63,335.017c-3.438-5.81-10.241-6.08-10.241-6.08s-6.629-.848-10.881,8c-3.963,8.247-9.433,16.21-.881,18.141l1.545-4.808.957,5.166a33.447,33.447,0,0,0,3.659.063c9.159-.3,17.882.086,17.6-3.2C405.017,347.929,406.938,340.607,403.63,335.017Z" transform="translate(-261.702 -258.662)"/><path class="h" d="M260.5,453.9l.45,11.693h8.095L268.595,453Z" transform="translate(-143.349 -249.256)"/><path class="d" d="M395.852,442.1l-.819,2.721-10.6,35.226-1.169,3.877.9,41.374-11.243,1.349s-.328-4.344-.809-10.757c-.967-12.7-2.55-33.526-3.467-44.859-.337-4.191-.58-7.083-.67-7.794-.45-3.6,5.4-21.587,5.4-21.587l11.693-.9Z" transform="translate(-256.665 -320.203)"/><path class="d" d="M366.007,648.422s-3.148-3.6-3.6-.9-5.846,13.042-5.846,13.042-15.74,10.344-2.248,11.243c0,0,6.746-.9,8.994-4.5,0,0,3.6-2.249,4.5-2.249s6.3-1.8,5.4-4.5-.45-12.592-.45-12.592Z" transform="translate(-246.157 -433.434)"/><path class="h" d="M265.5,425.5l4.047,7.645,6.3-3.148L271.8,421Z" transform="translate(-146.1 -231.647)"/><path class="f" d="M373.772,512.378a60.685,60.685,0,0,1-4.272-18.663c6.512-7.276,14.391-15.29,14.391-15.29l9.444-.45,2.923-.225c.684,6.836-5.1,15.641-10.973,22.657A125.576,125.576,0,0,1,373.772,512.378Z" transform="translate(-257.521 -340.564)"/><path class="d" d="M374.257,459.49s-28.782,25.184-24.734,35.528,15.29,22.936,15.29,22.936l8.686-5.184-8.236-19.1s3.453-3.062,7.656-7.6c6.84-7.383,15.665-18.673,14.83-27.029l-.45-15.29-7.645.9Z" transform="translate(-246.313 -321.854)"/><path class="d" d="M395.645,613.852s-3.148,0-2.7,2.7,1.349,7.2,1.349,7.2-3.6,21.137,4.947,16.19,6.3-17.989,6.3-17.989,3.148-8.095-.9-8.994-5.4-1.8-5.846-1.349S395.645,613.852,395.645,613.852Z" transform="translate(-270.398 -414.155)"/><path class="i" d="M403.8,360.75s3.6,9.444,2.249,9.894a20.211,20.211,0,0,0-4.047,2.7l4.5,4.047,11.693-6.3s-5.4-7.2-4.947-10.343Z" transform="translate(-275.405 -276.181)"/><circle class="h" cx="8.095" cy="8.095" r="8.095" transform="translate(123.447 73.326)"/><path class="j" d="M403.024,379.75s-9.41,4.639-12.8,1.645c0,0-5.638-.3-6.538,2.852s.9,5.846-1.349,6.746-3.823,3.373-2.473,7.42,1.124,4.722-.675,6.071-3.6,4.047-3.6,4.947-1.8.9-.9,1.8-.9,0,.9.9,6.746-7.2,10.343-3.148,14.841,10.793,15.74,6.746,3.6-13.941,3.6-13.941,9.444-17.539,6.746-19.338S403.024,379.75,403.024,379.75Z" transform="translate(-260.239 -286.636)"/><path class="h" d="M420.328,449.6s-4.947-.9-6.3,2.249-8.994,10.343-4.047,10.793S418.529,455,418.529,455l4.947-.9Z" transform="translate(-278.892 -325.01)"/><path class="j" d="M438.846,385.75l5.881.328s2.663,2.82,3.113,5.519,8.994,22.936,3.6,25.184-17.089,3.6-17.089,3.6l-1.349-6.3,7.645-2.7-5.4-11.243Z" transform="translate(-292.463 -289.938)"/><path class="f" d="M264.349,372.595l7.4,18.494L263,372.595l7.645-8.095Z" transform="translate(-144.724 -200.556)"/><path class="f" d="M256.143,427.766l3.084,3.928h-2.249Z" transform="translate(-140.951 -235.37)"/><circle class="d" cx="4.918" cy="4.918" r="4.918" transform="translate(127.601 65.385)"/><path class="d" d="M401.819,320.133a4.919,4.919,0,0,1,4.4-4.891,4.918,4.918,0,1,0,0,9.782,4.919,4.919,0,0,1-4.4-4.891Z" transform="translate(-274.735 -251.123)"/><path class="d" d="M290.285,164.182l-6.721-3.52-9.28,1.44-1.92,8.48,4.78-.184,1.335-3.116v3.064l2.205-.085,1.28-4.96.8,5.28,7.84-.16Z" transform="translate(-149.877 -88.387)"/></g></g></svg>