<svg xmlns="http://www.w3.org/2000/svg" xmlns:xlink="http://www.w3.org/1999/xlink" width="696.336" height="402" viewBox="0 0 696.336 402"><defs><style>.a{fill:#0388ee;}.b,.e{opacity:0.05;}.c,.d{opacity:0.1;}.f{fill:#192534;}.g{fill:#0cbc35;}.h{fill:#fbbebe;}.i{fill:#f2f2f2;}.j{fill:#92565e;}.k{fill:#2f2e41;}.l{fill:#a0616a;}.m{fill:#fff;}.n{fill:#e6e6e6;}.o{fill:#c72424;}.p{fill:#f14336;}.q{fill:#ff5722;}.r{fill:#464a5f;}.s{fill:#9c9ca1;}.t{fill:#939498;}.u{fill:url(#a);}.v{fill:#0ebace;}.w{fill:#2154ab;fill-rule:evenodd;}.x{fill:red;}</style><linearGradient id="a" x1="0.86" x2="0.135" y2="1" gradientUnits="objectBoundingBox"><stop offset="0" stop-color="#f90"/><stop offset="1" stop-color="#9a13d2"/></linearGradient></defs><g transform="translate(1 -1289)"><g transform="translate(-2718 1580.176)"><path class="a" d="M567.776,0A153,153,0,0,1,673.635,42.533l50.09,48a153,153,0,0,1,0,220.934l-50.09,48A153,153,0,0,1,567.776,402H199L198,0Z" transform="translate(2519 -291.176)"/></g><path class="b" d="M921.293,692.416l-51.706-89.559a1.645,1.645,0,0,0-2.857,0l-51.707,89.559a1.645,1.645,0,0,0,1.426,2.493h15.424a1.655,1.655,0,0,1,1.65,1.65v19.118a1.65,1.65,0,0,0,1.645,1.65h20.105a1.65,1.65,0,0,0,1.65-1.65v-9.243a1.645,1.645,0,0,1,1.645-1.645h19.138a1.65,1.65,0,0,1,1.65,1.645v9.243a1.65,1.65,0,0,0,1.65,1.65h20.13a1.65,1.65,0,0,0,1.65-1.65V696.538a1.65,1.65,0,0,1,1.65-1.65h15.424a1.65,1.65,0,0,0,1.431-2.473ZM849.2,702.326a1.645,1.645,0,0,1-1.167.5h-7.258a1.65,1.65,0,0,1,0-3.3h7.258a1.65,1.65,0,0,1,1.167,2.817Zm47.5,0a1.645,1.645,0,0,1-1.167.5h-7.253a1.65,1.65,0,0,1,0-3.3h7.253a1.65,1.65,0,0,1,1.167,2.817Z" transform="translate(-265.021 972.891)"/><path class="c" d="M287.526,694l-51.707-89.559a1.65,1.65,0,0,0-2.857,0L188.3,681.8a136.429,136.429,0,0,0,18.709,19.3h7.258a1.65,1.65,0,1,1,0,3.3H211.2a79.9,79.9,0,0,0,11.964,7.443v-3.814a1.65,1.65,0,0,1,1.65-1.65h19.173a1.65,1.65,0,0,1,1.645,1.65v9.233a1.6,1.6,0,0,0,.154.693,1.65,1.65,0,0,0,1.5.957h20.125a1.616,1.616,0,0,0,1.311-.663,1.585,1.585,0,0,0,.334-1V698.128a1.65,1.65,0,0,1,1.65-1.65h15.424a1.65,1.65,0,0,0,1.4-2.478Zm-34.179,7.578a1.646,1.646,0,0,1,1.167-.5h7.258a1.65,1.65,0,1,1,0,3.3h-7.258a1.65,1.65,0,0,1-1.167-2.817Zm-32.479-33.142a1.65,1.65,0,0,1-1.65-1.65V654.254a1.65,1.65,0,0,1,1.65-1.65h27.05a1.65,1.65,0,0,1,1.645,1.65v12.533a1.65,1.65,0,0,1-1.645,1.65Z" transform="translate(49.149 972.093)"/><path class="c" d="M594.587,428.024h-63.97V414.185a3.31,3.31,0,0,0-3.31-3.31H508.5V396.134a2.084,2.084,0,0,0-2.084-2.084h-24.2a2.084,2.084,0,0,0-2.084,2.084v14.741H458.042a3.31,3.31,0,0,0-3.31,3.31v13.839H393.718a.673.673,0,0,0-.668.673V612.412a.673.673,0,0,0,.668.673h40.55a.673.673,0,0,0,.673-.673V587.7a.678.678,0,0,1,.673-.673h17.129a.678.678,0,0,1,.673.673v24.717a.673.673,0,0,0,.668.673h80.137a.678.678,0,0,0,.673-.673V587.7a.673.673,0,0,1,.668-.673h17.129a.673.673,0,0,1,.673.673v24.717a.678.678,0,0,0,.673.673h40.55a.678.678,0,0,0,.673-.673V428.7A.678.678,0,0,0,594.587,428.024Zm-166.9,150.414a.668.668,0,0,1-.668.668H401.969a.668.668,0,0,1-.673-.668v-8.555a.673.673,0,0,1,.673-.673h25.046a.673.673,0,0,1,.668.673Zm0-22.1a.668.668,0,0,1-.668.673H401.969a.668.668,0,0,1-.673-.673v-8.55a.668.668,0,0,1,.673-.673h25.046a.668.668,0,0,1,.668.673Zm0-22.1a.673.673,0,0,1-.668.673H401.969a.673.673,0,0,1-.673-.673v-8.555a.673.673,0,0,1,.673-.673h25.046a.673.673,0,0,1,.668.673Zm0-22.1a.668.668,0,0,1-.668.673H401.969a.668.668,0,0,1-.673-.673v-8.55a.668.668,0,0,1,.673-.673h25.046a.668.668,0,0,1,.668.673Zm0-22.1a.673.673,0,0,1-.668.673H401.969a.673.673,0,0,1-.673-.673v-8.555a.668.668,0,0,1,.673-.668h25.046a.668.668,0,0,1,.668.668Zm0-22.1a.668.668,0,0,1-.668.668H401.969a.668.668,0,0,1-.673-.668v-8.554a.673.673,0,0,1,.673-.673h25.046a.673.673,0,0,1,.668.673Zm0-22.1a.668.668,0,0,1-.668.673H401.969a.668.668,0,0,1-.673-.673v-8.549a.668.668,0,0,1,.673-.673h25.046a.668.668,0,0,1,.668.673Zm59.379,132.606a.668.668,0,0,1-.673.668H461.322a.673.673,0,0,1-.673-.668v-8.55a.678.678,0,0,1,.673-.673h25.046a.673.673,0,0,1,.673.673Zm0-22.1a.668.668,0,0,1-.673.673H461.322a.673.673,0,0,1-.673-.673v-8.545a.673.673,0,0,1,.673-.673h25.046a.668.668,0,0,1,.673.673Zm0-22.1a.673.673,0,0,1-.673.673H461.322a.678.678,0,0,1-.673-.673v-8.55a.678.678,0,0,1,.673-.673h25.046a.673.673,0,0,1,.673.673Zm0-22.1a.668.668,0,0,1-.673.673H461.322a.673.673,0,0,1-.673-.673V503.58a.673.673,0,0,1,.673-.673h25.046a.668.668,0,0,1,.673.673Zm0-22.1a.673.673,0,0,1-.673.673H461.322a.678.678,0,0,1-.673-.673v-8.55a.673.673,0,0,1,.673-.668h25.046a.668.668,0,0,1,.673.668Zm0-22.1a.668.668,0,0,1-.673.668H461.322a.673.673,0,0,1-.673-.668v-8.549a.678.678,0,0,1,.673-.673h25.046a.673.673,0,0,1,.673.673Zm0-22.1a.668.668,0,0,1-.673.673H461.322a.673.673,0,0,1-.673-.673v-8.544a.673.673,0,0,1,.673-.673h25.046a.668.668,0,0,1,.673.673Zm40.575,132.606a.668.668,0,0,1-.673.668H501.917a.673.673,0,0,1-.673-.668v-8.544a.678.678,0,0,1,.673-.673h25.046a.673.673,0,0,1,.673.673Zm0-22.1a.668.668,0,0,1-.673.673H501.917a.673.673,0,0,1-.673-.673v-8.54a.673.673,0,0,1,.673-.673h25.046a.668.668,0,0,1,.673.673Zm0-22.1a.673.673,0,0,1-.673.673H501.917a.678.678,0,0,1-.673-.673v-8.544a.678.678,0,0,1,.673-.673h25.046a.673.673,0,0,1,.673.673Zm0-22.1a.668.668,0,0,1-.673.673H501.917a.673.673,0,0,1-.673-.673V503.58a.673.673,0,0,1,.673-.673h25.046a.668.668,0,0,1,.673.673Zm0-22.1a.673.673,0,0,1-.673.673H501.917a.678.678,0,0,1-.673-.673v-8.545a.673.673,0,0,1,.673-.668h25.046a.668.668,0,0,1,.673.668Zm0-22.1a.668.668,0,0,1-.673.668H501.917a.673.673,0,0,1-.673-.668v-8.544a.678.678,0,0,1,.673-.673h25.046a.673.673,0,0,1,.673.673Zm0-22.1a.668.668,0,0,1-.673.673H501.917a.673.673,0,0,1-.673-.673v-8.539a.673.673,0,0,1,.673-.673h25.046a.668.668,0,0,1,.673.673Zm59.379,132.606a.673.673,0,0,1-.673.668H561.3a.668.668,0,0,1-.673-.668v-8.539a.673.673,0,0,1,.673-.673h25.046a.678.678,0,0,1,.673.673Zm0-22.1a.673.673,0,0,1-.673.673H561.3a.668.668,0,0,1-.673-.673v-8.534a.668.668,0,0,1,.673-.673h25.046a.673.673,0,0,1,.673.673Zm0-22.1a.678.678,0,0,1-.673.673H561.3a.673.673,0,0,1-.673-.673v-8.539a.673.673,0,0,1,.673-.673h25.046a.678.678,0,0,1,.673.673Zm0-22.1a.673.673,0,0,1-.673.673H561.3a.668.668,0,0,1-.673-.673V503.58a.668.668,0,0,1,.673-.673h25.046a.673.673,0,0,1,.673.673Zm0-22.1a.678.678,0,0,1-.673.673H561.3a.673.673,0,0,1-.673-.673v-8.54a.668.668,0,0,1,.673-.668h25.046a.673.673,0,0,1,.673.668Zm0-22.1a.673.673,0,0,1-.673.668H561.3a.668.668,0,0,1-.673-.668v-8.539a.673.673,0,0,1,.673-.673h25.046a.678.678,0,0,1,.673.673Zm0-22.1a.673.673,0,0,1-.673.673H561.3a.668.668,0,0,1-.673-.673v-8.534a.668.668,0,0,1,.673-.673h25.046a.673.673,0,0,1,.673.673Z" transform="translate(-53.528 1077.187)"/><g class="d" transform="translate(190 1447.298)"><path d="M167.619,687.163a12.189,12.189,0,0,1-1.61,6.172,12.633,12.633,0,0,1,0,12.343,11.341,11.341,0,0,1,1.216,2.991,226.368,226.368,0,0,1-15-22.433h0a11.963,11.963,0,0,1,1.575-5.264,12.19,12.19,0,0,1-1.61-6.132,12.693,12.693,0,0,1,.728-4.292,10.664,10.664,0,0,1,.882-1.879,6.707,6.707,0,0,1,12.209,0,11.1,11.1,0,0,1,.862,1.82,12.777,12.777,0,0,1,.748,4.352,12.189,12.189,0,0,1-1.61,6.172A12.189,12.189,0,0,1,167.619,687.163Z" transform="translate(-122.742 -505.856)"/><ellipse cx="7.712" cy="10.1" rx="7.712" ry="10.1" transform="translate(29.448 146.521)"/><ellipse cx="7.712" cy="10.1" rx="7.712" ry="10.1" transform="translate(29.448 134.177)"/><path d="M167.07,428.684a36.781,36.781,0,0,1-7.912,22.847,36.955,36.955,0,0,1-21.935,59.11c-.887.179-1.79.319-2.7.429a37.329,37.329,0,0,1-8.475.045q-1.406-.15-2.777-.414a36.538,36.538,0,0,1-11.466-4.193,368.165,368.165,0,0,1-17.4-41.791,36.786,36.786,0,0,1,6.625-13.186,36.985,36.985,0,0,1-5.957-34.7l28.057,9.417L96.814,412.577a37.109,37.109,0,0,1,4.257-6.74,36.955,36.955,0,1,1,61.034-41.352l-27.124,19.941,29.413-15.255a37,37,0,0,1-.708,29.278l-21.935-.165,20.27,3.33a37.093,37.093,0,0,1-2.876,4.227A36.791,36.791,0,0,1,167.07,428.684Z" transform="translate(-93.12 -346.029)"/><path class="c" d="M167.1,556.977a36.964,36.964,0,0,1-29.816,36.261c-.893.181-1.8.32-2.708.43a37.326,37.326,0,0,1-8.475.045q-1.406-.15-2.777-.414a36.543,36.543,0,0,1-11.466-4.193,368.17,368.17,0,0,1-17.4-41.791,36.786,36.786,0,0,1,6.625-13.186,36.805,36.805,0,0,1-7.907-22.847c0-4.148,70.949,16.561,65.994,22.847a36.781,36.781,0,0,1,7.931,22.847Z" transform="translate(-93.145 -428.627)"/></g><g class="e" transform="translate(645.146 1486.965)"><path d="M1070.424,690.44c-1.446,4.616-2.991,9.2-4.576,13.674a12.809,12.809,0,0,1-.658-4.093C1065.19,695.57,1067.383,691.786,1070.424,690.44Z" transform="translate(-1035.738 -558.412)"/><path d="M1056.3,478.079c0,8.754-1.765,22.573-4.985,38.386a422.139,422.139,0,0,1-10.544,41.163c-1.446,4.616-2.991,9.2-4.576,13.674-1.82,5.08-3.739,10.025-5.748,14.756a37.09,37.09,0,0,1-16.406-57.709,37.14,37.14,0,0,1-5.982-34.782l28.057,9.437-26.312-13.7a37.216,37.216,0,0,1,4.213-6.755,37.085,37.085,0,0,1,14.517-56.951,63.587,63.587,0,0,1,24.3,31.87l-4.91,3.614,5.215-2.707a63.321,63.321,0,0,1,3.036,16.611h-1.466l1.5.244C1056.282,476.15,1056.3,477.147,1056.3,478.079Z" transform="translate(-1006.112 -425.6)"/><path class="c" d="M1051.391,596.238a421.969,421.969,0,0,1-10.544,41.163c-1.446,4.616-2.991,9.2-4.576,13.675-1.82,5.08-3.739,10.025-5.748,14.756a37.09,37.09,0,0,1-16.406-57.709,36.95,36.95,0,0,1-7.907-22.9C1006.21,582.713,1031.993,589.264,1051.391,596.238Z" transform="translate(-1006.161 -505.373)"/></g><path class="c" d="M387.843,131.165l-7.737,4.91,4.691-8.53a7.677,7.677,0,0,0-4.681-1.67h-.125a9.052,9.052,0,0,1-1.605-.115l-2.622,1.66,1.127-2.044a9.312,9.312,0,0,1-4.586-3.49l-4.7,2.991,2.966-5.389a13.743,13.743,0,0,0-10.514-5.319c-4.88,0-9.228,2.906-12.034,7.428a8.973,8.973,0,0,1-7.976,4.287h-.264c-5.389,0-9.756,6.112-9.756,13.645s4.367,13.645,9.756,13.645a7.338,7.338,0,0,0,3.4-.847,14.068,14.068,0,0,1,11.8-.234,12.319,12.319,0,0,0,10.04.025,14.1,14.1,0,0,1,11.705.224,7.3,7.3,0,0,0,3.36.833c5.389,0,9.756-6.107,9.756-13.645A17.328,17.328,0,0,0,387.843,131.165Z" transform="translate(-25.918 1211.916)"/><path class="c" d="M262.525,266.775l5.419,3.435-3.29-5.982a5.339,5.339,0,0,1,3.275-1.172h.115a5.614,5.614,0,0,0,1.122-.085L271,264.137l-.788-1.431a6.555,6.555,0,0,0,3.215-2.438l3.285,2.084-2.079-3.774A9.63,9.63,0,0,1,282,254.86c3.415,0,6.456,2.029,8.425,5.195a6.3,6.3,0,0,0,5.568,2.991h.179c3.774,0,6.83,4.277,6.83,9.552s-3.056,9.552-6.83,9.552a5.1,5.1,0,0,1-2.378-.6,9.871,9.871,0,0,0-8.265-.16,8.7,8.7,0,0,1-3.53.758,8.585,8.585,0,0,1-3.49-.743,9.876,9.876,0,0,0-8.2.159,5.088,5.088,0,0,1-2.353.583c-3.769,0-6.83-4.277-6.83-9.552A12.139,12.139,0,0,1,262.525,266.775Z" transform="translate(5.109 1149.408)"/><path class="f" d="M343.181,401.737l109.39,52.843a27.22,27.22,0,0,0,20.818,0l109.39-52.843c5.758-2.782,5.758-7.308,0-10.085L473.39,338.809a27.22,27.22,0,0,0-20.818,0l-109.39,52.843C337.443,394.429,337.443,398.955,343.181,401.737Z" transform="translate(-26.362 1105.927)"/><path class="f" d="M582.629,563.734S562.654,554.1,560,552.806s-3.36-1.226-6.142.065-80.686,38.944-80.686,38.944a27.22,27.22,0,0,1-20.818,0s-75.84-36.591-79.394-38.336c-3.878-1.874-4.985-1.874-8.475-.194L342.9,563.694c-5.758,2.782-5.758,7.3,0,10.085l109.39,52.843a27.221,27.221,0,0,0,20.818,0l109.39-52.843c5.887-2.717,5.887-7.239.13-10.02Z" transform="translate(-26.212 998.045)"/><path class="f" d="M582.695,692.513s-19.976-9.631-22.628-10.928-3.36-1.226-6.142.065S473.3,720.635,473.3,720.635a27.159,27.159,0,0,1-20.818,0s-75.84-36.591-79.394-38.336c-3.878-1.875-4.985-1.875-8.475-.194l-21.591,10.409c-5.758,2.782-5.758,7.308,0,10.085l109.39,52.843a24.172,24.172,0,0,0,10.409,2.069,25.166,25.166,0,0,0,10.409-2.069L582.63,702.6C588.453,699.822,588.453,695.3,582.695,692.513Z" transform="translate(-26.277 933.464)"/><ellipse class="f" cx="23.75" cy="32.987" rx="23.75" ry="32.987" transform="translate(346.476 1379.858)"/><rect class="g" width="21.112" height="21.112" transform="translate(367.588 1466.945)"/><path class="h" d="M415.253,581.028l6.934,9.751a12.633,12.633,0,0,1,5.01-10.1,61.733,61.733,0,0,0-9.816-7.872.787.787,0,0,0-.568-.189.823.823,0,0,0-.424.314,13.415,13.415,0,0,0-2.787,4.4C413.179,578.79,414.406,579.872,415.253,581.028Z" transform="translate(-63.792 987.64)"/><path class="i" d="M435.716,586.82a6.154,6.154,0,0,1,2.991,1.032,15.337,15.337,0,0,1,3.445,2.258,5.225,5.225,0,0,1,1.765,3.614,9.12,9.12,0,0,1-.857,3.2,27.669,27.669,0,0,0-1.286,15.155c.324,1.655.8,3.39.289,4.985a8.132,8.132,0,0,1-2.852,3.535c-1.884,1.56-3.958,3.086-6.386,3.415s-5.234-1-5.773-3.36a9.3,9.3,0,0,1,.533-4.242,41.018,41.018,0,0,0,.788-10.255,14.149,14.149,0,0,0-.259-3.116c-.164-.718-.444-1.406-.678-2.109a8.766,8.766,0,0,1-.184-5.858,11.671,11.671,0,0,1,1.62-2.662C430.566,590.145,432.4,586.8,435.716,586.82Z" transform="translate(-70.466 980.517)"/><path class="j" d="M431.012,286.415a5.326,5.326,0,0,1-2.777,5.927l-2.956,2.139c-.15.1-.314.239-.329.419a.628.628,0,0,0,.319.5,9.807,9.807,0,0,0,4.1,1.869,19.443,19.443,0,0,0,3.186.269c5.544.164,11.182.289,16.531-1.167a8.476,8.476,0,0,0,2.732-1.161,3.49,3.49,0,0,0,1.535-2.448,7.579,7.579,0,0,1-3.7-1.65,5.777,5.777,0,0,1-2.637-2.9c-.224-.8-.095-1.67-.279-2.493a5.008,5.008,0,0,0-2.6-2.991c-3.061-1.735-6.675-1.84-10.01-2.747-1.2-.324-3.335-1.76-3.415.18C430.628,282.218,430.912,284.361,431.012,286.415Z" transform="translate(-69.525 1134.8)"/><path class="k" d="M386.233,386.025c-4.307-1.057-8.839.5-12.742,2.577s-7.513,4.8-11.66,6.371c-3.325,1.261-7.029,1.82-9.826,4.018-2.493,1.994-3.933,5.02-4.861,8.076a12.841,12.841,0,0,0-.688,5.334,14.453,14.453,0,0,0,1.311,3.988,176.4,176.4,0,0,0,10.185,18.445c6.531,10.773,13.121,21.626,21.586,30.963,2.7-1.854,2.438-6.321,5.115-8.206a14.484,14.484,0,0,0,2.059-1.341c1.266-1.311.773-3.455.174-5.175A259,259,0,0,0,373.72,419.83c7.283.05,13.39-5.643,20.564-6.919a37.833,37.833,0,0,1,6.012-.4,203.975,203.975,0,0,0,21.217-1.5c2.552-.319,5.259-.753,7.179-2.468,1.994-1.785,2.7-4.566,3.305-7.174,1.266-5.429,4.442-10.195,6.4-15.414.5-1.346,1-2.7,1.61-3.988.539-1.107,1.177-2.164,1.745-3.255a46.959,46.959,0,0,0,3.684-11.137c1.047-4.586,1.994-9.272,2.961-13.879.648-3.171,1.909-6.61.4-9.472a8.556,8.556,0,0,0-4.128-3.49,10.138,10.138,0,0,0-5.7-1.037c-3.809.6-6.376,4.093-8.515,7.293l-3.34,5.03a35.55,35.55,0,0,0-2.2,3.6,71.611,71.611,0,0,0-2.9,7.752c-2.6,6.949-7.478,13.226-14.108,16.536-1.765.882-3.629,1.545-5.4,2.4-1.391.668-2.727,1.451-4.133,2.089A18.485,18.485,0,0,1,386.233,386.025Z" transform="translate(-30.141 1104.485)"/><circle class="l" cx="13.196" cy="13.196" r="13.196" transform="translate(359.672 1395.691)"/><path class="g" d="M431.14,299.07a13.638,13.638,0,0,1-2.2,4.262c-1.884,2.174-4.93,2.946-7.807,3.061a23.075,23.075,0,0,1-9.372-1.59,8.723,8.723,0,0,0-3.938-1c-1.969.174-3.43,1.83-5.165,2.782a25.909,25.909,0,0,1-2.732,1.177,15.185,15.185,0,0,0-8.749,11.037c-1,5.623,3.53,10.967,6.271,15.983a32.933,32.933,0,0,1,3.27,6.75c1.122,4.058.04,8.38-1.381,12.343s-3.2,7.882-3.49,12.079c-.09,1.231.339,2.891,1.575,2.876a2.716,2.716,0,0,0,1.261-.5,11.217,11.217,0,0,1,7.288-1.341c1.75.284,3.415,1,5.165,1.241,3.44.5,6.87-.708,10.125-1.9,3.106-1.142,6.336-2.368,8.55-4.831,1.66-1.845,4.862-3.4,6.567-5.206a54.37,54.37,0,0,0,5.253-7.048,21.22,21.22,0,0,0,2.189-5.294,6.48,6.48,0,0,1,2.24-2.882,47.621,47.621,0,0,1-.76-6.76c.095-1.58.972-2.991,1.62-4.437.424-.952.758-1.944,1.092-2.931l1.077-3.206c.289-.872.583-1.74.8-2.632.374-1.5.528-3.091.967-4.591,1.117-3.874,3.958-6.979,6.585-10.02a42.286,42.286,0,0,0-7.084-2.044,10.652,10.652,0,0,1-2.373-.618c-.872-.384-1.61-1-2.453-1.456a13.672,13.672,0,0,0-4.292-1.092,60.828,60.828,0,0,1-10.105-2.213Z" transform="translate(-52.52 1124.818)"/><path class="l" d="M382.091,396.484a12.861,12.861,0,0,0,.115,3.49,13.657,13.657,0,0,0,1.431,3.39c2.742,5.24,4.985,10.723,7.244,16.2a21.781,21.781,0,0,1,1.451,4.377c.209,1.137.234,2.3.384,3.45a10.964,10.964,0,0,0,.892,3.27c.528,1.127,3.39,7.144,4.487,7.732,2.358,1.281,5.524.1,7.024-2.129s-.5-10.15-1.186-12.737a31.982,31.982,0,0,0-3.43-7.258,133.314,133.314,0,0,1-6.246-12.6c-1.585-3.679-3.031-7.657-2.363-11.611a37.113,37.113,0,0,1,2.173-6.4,10.6,10.6,0,0,0,.638-6.625,3.129,3.129,0,0,0-.5-1.052,3.349,3.349,0,0,0-1.4-.9c-2.333-.942-7.1-1.725-8.111,1.411-.414,1.3-.5,2.722-.847,4.053a48.651,48.651,0,0,0-1.167,6.436C382.38,391.459,382.236,393.972,382.091,396.484Z" transform="translate(-47.998 1086.119)"/><path class="h" d="M470.525,435.47q-4.412,5.2-8.584,10.614l7.2,5.319a15.169,15.169,0,0,1,1.047-2.742,15.362,15.362,0,0,1,1.71-2.418l7.293-9.038a12.915,12.915,0,0,0-5.658-1.914C472.568,435.43,471.487,435.33,470.525,435.47Z" transform="translate(-88.075 1056.506)"/><path class="l" d="M530.152,319.583c1.9.434,3.809.867,5.688,1.4,3.9,1.1,7.852,2.7,10.554,5.728.6.668,1.142,1.685.613,2.413a3.377,3.377,0,0,1-.628.558,7.363,7.363,0,0,0-1.6,2.348,18.39,18.39,0,0,1-3.335,4.417,14.538,14.538,0,0,0-3.684-2.906l-2.991-1.869a11.513,11.513,0,0,0-4.237-1.919c-1.775-.274-3.564.284-5.359.419a11.356,11.356,0,0,1-6.536-1.5,1.566,1.566,0,0,1-.618-.533,1.545,1.545,0,0,1-.164-.578,7.847,7.847,0,0,1,1.79-5.723c.922-1.172,2.991-3.365,4.581-3.569a9.261,9.261,0,0,1,2.667.588Z" transform="translate(-116.102 1115.197)"/><path class="k" d="M507.019,345.63a12.761,12.761,0,0,0-1.565.728c-3.908,2.039-7.941,4.183-10.628,7.677a30.527,30.527,0,0,0-3.211,5.738L485.1,373.622l-1.366,2.906-2.094,4.4-5.324,11.326a9.308,9.308,0,0,1,5.663.538,4.985,4.985,0,0,1,2.931,4.591c1.545-.135,2.368-1.815,3.455-2.921a21.632,21.632,0,0,1,3.081-2.228,24.355,24.355,0,0,0,3.654-3.544,107.193,107.193,0,0,1,11.052-10.648,24.856,24.856,0,0,0,2.193-1.964,18.1,18.1,0,0,0,3.34-5.618,48.915,48.915,0,0,0,3.28-12.214c.339-2.552.459-5.244-.583-7.6a8.475,8.475,0,0,0-9.347-4.686" transform="translate(-95.287 1101.469)"/><path class="c" d="M506.019,346.63a12.753,12.753,0,0,0-1.565.728c-3.908,2.039-7.941,4.183-10.628,7.677a30.519,30.519,0,0,0-3.211,5.738L484.1,374.622l-1.366,2.906-2.094,4.4-5.324,11.326a9.308,9.308,0,0,1,5.663.538,4.985,4.985,0,0,1,2.931,4.591c1.545-.135,2.368-1.815,3.455-2.921a21.629,21.629,0,0,1,3.081-2.228,24.349,24.349,0,0,0,3.654-3.545,107.2,107.2,0,0,1,11.052-10.648,24.857,24.857,0,0,0,2.193-1.964,18.1,18.1,0,0,0,3.34-5.618,48.921,48.921,0,0,0,3.28-12.214c.339-2.552.459-5.244-.583-7.6a8.475,8.475,0,0,0-9.347-4.686" transform="translate(-94.785 1100.967)"/><path class="i" d="M455.759,452.723l-5.454-.6a.857.857,0,0,0-.449.035.8.8,0,0,0-.314.384q-2.632,4.955-4.915,10.09c-.848,1.9-1.64,4.178-.568,5.982.319.528.783.967,1.082,1.5a5.078,5.078,0,0,1-.12,4.118,2.159,2.159,0,0,0-.209,1.211c.135.558.7.892,1.216,1.147a42.766,42.766,0,0,0,13.625,4.068,1.41,1.41,0,0,0,1.062-.154,1.426,1.426,0,0,0,.409-.733,13.046,13.046,0,0,0,.444-1.625c.359-1.964-.194-3.988-.613-5.922a19.63,19.63,0,0,1-.08-9.616,12.886,12.886,0,0,1,1.745-3.649c.867-1.266-2.1-2.458-2.887-3.345C458.4,454.089,457.988,452.967,455.759,452.723Z" transform="translate(-78.849 1048.071)"/><path class="g" d="M385.765,350.6l-1.655,10.13c1.391-1.316,3.46-1.555,5.374-1.6s4.143.145,5.484,1.58c.543.588.887,1.331,1.416,1.934a2.069,2.069,0,0,0,2.1.8,1.82,1.82,0,0,0,1.067-1.261,5.486,5.486,0,0,0,.1-1.71l-.543-11.177a25.033,25.033,0,0,0-1.266-7.976,12.46,12.46,0,0,0-2.328-3.764,4.078,4.078,0,0,0-1-.862,4.173,4.173,0,0,0-1.321-.394c-1.3-.2-3.4-.543-4.611.159-1,.593-1.092,1.994-1.206,3.031C386.962,343.224,386.373,346.918,385.765,350.6Z" transform="translate(-49.045 1106.277)"/><ellipse class="f" cx="18.475" cy="7.917" rx="18.475" ry="7.917" transform="translate(354.393 1393.054)"/><circle class="f" cx="10.554" cy="10.554" r="10.554" transform="translate(338.56 1379.858)"/><circle class="f" cx="10.554" cy="10.554" r="10.554" transform="translate(375.51 1377.221)"/><path class="c" d="M482.419,210.139a10.559,10.559,0,0,1,2.328,13.769,11.141,11.141,0,0,0,.9-.972,10.558,10.558,0,1,0-16.412-13.286,11.212,11.212,0,0,0-.762,1.083A10.554,10.554,0,0,1,482.419,210.139Z" transform="translate(-91.351 1171.624)"/><path class="c" d="M399.265,213.858a10.559,10.559,0,0,1,13.261,4.362,10.912,10.912,0,0,0-.439-1.246,10.558,10.558,0,1,0-19.4,8.326,9.65,9.65,0,0,0,.6,1.176,10.554,10.554,0,0,1,5.982-12.618Z" transform="translate(-52.914 1169.196)"/><path class="c" d="M441.355,257.045c-9.153,0-16.745-2.852-18.216-6.6a3.664,3.664,0,0,0-.259,1.321c0,4.372,8.27,7.916,18.475,7.916s18.475-3.544,18.475-7.916a3.565,3.565,0,0,0-.259-1.321C458.1,254.214,450.508,257.045,441.355,257.045Z" transform="translate(-68.487 1149.199)"/><g transform="translate(-306.439 145.401)"><g transform="translate(-857.994 214.842)"><path class="m" d="M656.019,370.931c43.838-.783,43.831-65.675,0-66.452C612.181,305.262,612.188,370.154,656.019,370.931Z" transform="translate(795.588 675.887)"/><path class="n" d="M656.019,370.931c43.838-.783,43.831-65.675,0-66.452C612.181,305.262,612.188,370.154,656.019,370.931Zm0-64.437c41.181.736,41.174,61.694,0,62.424-41.18-.736-41.173-61.695,0-62.425Z" transform="translate(795.588 675.887)"/></g><path class="o" d="M856.354,198a17.187,17.187,0,0,0-6.9,32.933,15.13,15.13,0,0,1,.3-3.937l2.212-9.369a6.564,6.564,0,0,1-.551-2.716c0-2.551,1.472-4.448,3.314-4.448a2.291,2.291,0,0,1,2.315,2.575c0,1.575-1.008,3.936-1.52,6.1a2.653,2.653,0,0,0,2.716,3.307c3.252,0,5.448-4.181,5.448-9.141,0-3.763-2.543-6.582-7.149-6.582a8.141,8.141,0,0,0-8.464,8.235,4.96,4.96,0,0,0,1.134,3.37.788.788,0,0,1,.244.953c-.087.315-.268,1.079-.354,1.386a.583.583,0,0,1-.858.425c-2.4-.976-3.519-3.606-3.519-6.566,0-4.881,4.118-10.731,12.282-10.731,6.558,0,10.881,4.724,10.881,9.841,0,6.747-3.756,11.81-9.275,11.81a4.936,4.936,0,0,1-4.2-2.141s-1,3.937-1.213,4.724a14.166,14.166,0,0,1-1.732,3.685A17.187,17.187,0,1,0,856.354,198Z" transform="translate(-262.655 1013.247)"/></g><g transform="translate(-113.933 65.835)"><g transform="translate(0.263 112.792)"><g transform="translate(-857.994 214.842)"><path class="m" d="M656.019,370.931c43.838-.783,43.831-65.675,0-66.452C612.181,305.262,612.188,370.154,656.019,370.931Z" transform="translate(795.588 675.887)"/><path class="n" d="M656.019,370.931c43.838-.783,43.831-65.675,0-66.452C612.181,305.262,612.188,370.154,656.019,370.931Zm0-64.437c41.181.736,41.174,61.694,0,62.424-41.18-.736-41.173-61.695,0-62.425Z" transform="translate(795.588 675.887)"/></g></g><g transform="translate(576.933 1324.165)"><path class="p" d="M7.535,149.633l-1.183,4.418-4.326.092A17.03,17.03,0,0,1,1.9,138.268h0l3.851.706L7.44,142.8a10.146,10.146,0,0,0,.1,6.831Z" transform="translate(0 -129.086)"/><path class="p" d="M277.957,208.176a16.994,16.994,0,0,1-6.06,16.433h0l-4.851-.247-.686-4.286a10.132,10.132,0,0,0,4.359-5.174h-9.09v-6.725h16.329Z" transform="translate(-244.254 -194.352)"/><path class="p" d="M56.125,319.119h0a17.005,17.005,0,0,1-25.617-5.2l5.509-4.51a10.111,10.111,0,0,0,14.57,5.177Z" transform="translate(-28.483 -288.862)"/><path class="p" d="M54.574,3.914,49.067,8.422a10.109,10.109,0,0,0-14.9,5.293L28.625,9.182h0a17,17,0,0,1,25.95-5.268Z" transform="translate(-26.723)"/></g></g><g transform="translate(-291.686 165.853)"><g transform="translate(0.263 112.792)"><g transform="translate(-857.994 214.842)"><path class="m" d="M656.019,370.931c43.838-.783,43.831-65.675,0-66.452C612.181,305.262,612.188,370.154,656.019,370.931Z" transform="translate(795.588 675.887)"/><path class="n" d="M656.019,370.931c43.838-.783,43.831-65.675,0-66.452C612.181,305.262,612.188,370.154,656.019,370.931Zm0-64.437c41.181.736,41.174,61.694,0,62.424-41.18-.736-41.173-61.695,0-62.425Z" transform="translate(795.588 675.887)"/></g></g><path class="q" d="M28.433,12.244a3.57,3.57,0,0,0-2.555,1.088,17.152,17.152,0,0,0-9.248-2.895L18.5,1.9l5.948,1.355a2.669,2.669,0,0,0,2.643,2.684,2.718,2.718,0,1,0-2.38-3.929L18.14.528a.629.629,0,0,0-.743.487l-2.051,9.416A17.364,17.364,0,0,0,6.153,13.36a3.563,3.563,0,0,0-2.589-1.116A3.61,3.61,0,0,0,2.02,19.095a7.773,7.773,0,0,0-.176,1.691c0,5.735,6.367,10.381,14.184,10.381,7.851,0,14.217-4.647,14.217-10.381a6.647,6.647,0,0,0-.208-1.719,3.611,3.611,0,0,0-1.6-6.823ZM7.468,19.457a2.661,2.661,0,1,1,2.677,2.684,2.687,2.687,0,0,1-2.677-2.684Zm14.452,6.4c-2.455,2.491-9.381,2.491-11.837,0a.647.647,0,1,1,.891-.937c1.875,1.951,8.093,1.984,10.049,0a.649.649,0,0,1,.9.937Zm-.055-3.708a2.7,2.7,0,1,1,2.677-2.681A2.667,2.667,0,0,1,21.865,22.147Z" transform="translate(577.686 1325.814)"/></g><path class="r" d="M424.31,384.1l1.321,2.388,42.987-9.113-1.7-2.7Z" transform="translate(-22.737 1119.369)"/><path class="r" d="M500.624,417.773l-6.511-38.615a1.236,1.236,0,0,1,1.087-1.431l49.354-5.264a1.231,1.231,0,0,1,1.351,1.057l4.616,33.825Z" transform="translate(-104.201 1088.016)"/><path class="c" d="M500.624,417.773l-6.511-38.615a1.236,1.236,0,0,1,1.087-1.431l49.354-5.264a1.231,1.231,0,0,1,1.351,1.057l4.616,33.825Z" transform="translate(-104.201 1088.016)"/><path class="r" d="M502.138,417.773l-6.506-38.615a1.231,1.231,0,0,1,1.082-1.431l49.354-5.264a1.231,1.231,0,0,1,1.351,1.057l4.612,33.825Z" transform="translate(-104.963 1088.016)"/><path class="g" d="M409.31,318.679l5.344,32.808,44.618-9.178-4.148-29.158Z" transform="translate(-15.216 1150.22)"/><path class="s" d="M513.411,452.136l-.314-.633-5.908,1.321,15.045,22.992a1.944,1.944,0,0,0,2.174.8l52.843-15.359a1.944,1.944,0,0,0,.633-3.42L557.406,442.33l-4.272,1,.189.439Z" transform="translate(-110.768 1052.976)"/><path class="c" d="M513.411,452.136l-.314-.633-5.908,1.321,15.045,22.992a1.944,1.944,0,0,0,2.174.8l52.843-15.359a1.944,1.944,0,0,0,.633-3.42L557.406,442.33l-4.272,1,.189.439Z" transform="translate(-110.768 1052.976)"/><path class="s" d="M514.922,452.136l-.314-.633-5.908,1.321,15.045,22.992a1.944,1.944,0,0,0,2.174.8l52.843-15.359a1.944,1.944,0,0,0,.628-3.42L558.911,442.33l-4.272,1,.189.439Z" transform="translate(-111.524 1052.976)"/><path class="c" d="M568.232,476.412l16.98-4.422a.334.334,0,0,1,.3.075l7.543,6.845a.329.329,0,0,1-.13.558l-17.947,5.3a.324.324,0,0,1-.339-.1l-6.565-7.732a.334.334,0,0,1,.154-.523Z" transform="translate(-141.266 1038.107)"/><path class="t" d="M568.973,475.671l16.98-4.412a.329.329,0,0,1,.3.075l7.533,6.84a.329.329,0,0,1-.13.558l-17.947,5.3a.334.334,0,0,1-.344-.1l-6.561-7.732a.324.324,0,0,1,.164-.529Z" transform="translate(-141.628 1038.473)"/><g class="d" transform="translate(402.654 1497.655)"><path d="M521.21,467.64l.763,1.226a.149.149,0,0,0,.154.07l2.577-.573a.15.15,0,0,0,.085-.229l-.853-1.2a.145.145,0,0,0-.149-.06l-2.493.533a.145.145,0,0,0-.085.229Z" transform="translate(-520.438 -456.988)"/><path d="M527.976,466.24l.758,1.231a.155.155,0,0,0,.159.065l2.572-.573a.145.145,0,0,0,.085-.229l-.848-1.187a.149.149,0,0,0-.149-.06l-2.493.533a.145.145,0,0,0-.085.219Z" transform="translate(-523.834 -456.291)"/><path d="M534.515,464.816l.763,1.226a.15.15,0,0,0,.154.065l2.577-.573a.149.149,0,0,0,.085-.229l-.857-1.186a.154.154,0,0,0-.149-.06l-2.493.533a.15.15,0,0,0-.08.224Z" transform="translate(-527.113 -455.574)"/><path d="M540.975,463.409l.753,1.211a.16.16,0,0,0,.17.07l2.552-.568a.16.16,0,0,0,.09-.244l-.838-1.172a.154.154,0,0,0-.16-.06l-2.493.528a.159.159,0,0,0-.075.234Z" transform="translate(-530.351 -454.866)"/><path d="M540.446,467.179l.763,1.226a.14.14,0,0,0,.154.065l2.572-.573a.14.14,0,0,0,.085-.224l-.848-1.191a.144.144,0,0,0-.149-.055l-2.493.533a.145.145,0,0,0-.085.219Z" transform="translate(-530.087 -456.761)"/><path d="M533.768,468.618l.763,1.226a.15.15,0,0,0,.159.065l2.572-.573a.145.145,0,0,0,.085-.229l-.853-1.167a.139.139,0,0,0-.149-.055l-2.493.533a.15.15,0,0,0-.085.2Z" transform="translate(-526.744 -457.493)"/><path d="M538.111,471.625l.763,1.231a.159.159,0,0,0,.16.065l2.572-.573a.145.145,0,0,0,.085-.229l-.853-1.182a.145.145,0,0,0-.15-.06l-2.493.533a.15.15,0,0,0-.085.214Z" transform="translate(-528.919 -458.994)"/><path d="M544.256,474.239l.763,1.226a.14.14,0,0,0,.155.065l2.572-.573a.144.144,0,0,0,.09-.224l-.852-1.191a.145.145,0,0,0-.15-.055l-2.493.533a.145.145,0,0,0-.085.219Z" transform="translate(-531.998 -460.302)"/><path d="M545.318,478.383l1.231,1.545a.145.145,0,0,0,.15.05l2.592-.673a.149.149,0,0,0,.08-.234l-1.276-1.555a.145.145,0,0,0-.15-.05l-2.552.688a.145.145,0,0,0-.075.229Z" transform="translate(-532.527 -462.297)"/><path d="M552.12,476.457l1.266,1.59a.145.145,0,0,0,.15.05l3.385-.937a.15.15,0,0,0,.075-.234l-1.276-1.56a.145.145,0,0,0-.15-.05l-3.37.907a.15.15,0,0,0-.08.234Z" transform="translate(-535.938 -461.219)"/><path d="M538.669,480.071l1.231,1.545a.145.145,0,0,0,.15.05l2.592-.673a.15.15,0,0,0,.08-.234l-1.276-1.56a.139.139,0,0,0-.15-.045l-2.552.683a.15.15,0,0,0-.075.234Z" transform="translate(-529.192 -463.143)"/><path d="M531.628,481.833l1.231,1.54a.145.145,0,0,0,.15.05l2.592-.673a.15.15,0,0,0,.08-.234l-1.271-1.57a.154.154,0,0,0-.155-.05l-2.552.688a.15.15,0,0,0-.075.249Z" transform="translate(-525.656 -464.017)"/><path d="M547.422,461.9l.748,1.211a.159.159,0,0,0,.17.07l2.552-.568a.155.155,0,0,0,.09-.244l-.837-1.172a.155.155,0,0,0-.16-.06l-2.463.528a.15.15,0,0,0-.1.234Z" transform="translate(-533.583 -454.108)"/><path d="M546.983,465.659l.748,1.211a.16.16,0,0,0,.169.07l2.552-.568a.154.154,0,0,0,.09-.244l-.818-1.192a.155.155,0,0,0-.159-.06l-2.463.558a.154.154,0,0,0-.12.224Z" transform="translate(-533.368 -455.984)"/><path d="M553.7,460.479l.748,1.211a.16.16,0,0,0,.169.07l2.552-.568a.154.154,0,0,0,.09-.244l-.838-1.172a.155.155,0,0,0-.159-.06l-2.463.528a.155.155,0,0,0-.1.234Z" transform="translate(-536.731 -453.396)"/><path d="M572.023,456.5l1.057,1.127a.139.139,0,0,0,.12.035l2.278-.528a.125.125,0,0,0,.06-.214l-1.191-1.127a.135.135,0,0,0-.12-.03l-2.144.529a.125.125,0,0,0-.06.209Z" transform="translate(-545.916 -451.416)"/><path d="M577.888,455.145l1.062,1.127a.12.12,0,0,0,.12.035l2.278-.528a.12.12,0,0,0,.055-.209l-1.191-1.132a.144.144,0,0,0-.12-.03l-2.144.528a.13.13,0,0,0-.06.209Z" transform="translate(-548.859 -450.735)"/><path d="M572.148,460.155l1.062,1.127a.12.12,0,0,0,.12.035l2.278-.523a.125.125,0,0,0,.06-.214l-1.2-1.127a.125.125,0,0,0-.115-.035l-2.144.533a.125.125,0,0,0-.065.2Z" transform="translate(-545.981 -453.247)"/><path d="M566.127,461.532l1,1.077a.154.154,0,0,0,.15.045l2.208-.5a.159.159,0,0,0,.07-.269l-1.142-1.077a.149.149,0,0,0-.144-.035l-2.074.5a.159.159,0,0,0-.065.259Z" transform="translate(-542.956 -453.926)"/><path d="M570.7,468.344l1,1.077a.165.165,0,0,0,.15.045l2.208-.5a.154.154,0,0,0,.07-.264l-1.142-1.077a.165.165,0,0,0-.145-.04l-2.074.5a.16.16,0,0,0-.065.259Z" transform="translate(-545.248 -457.343)"/><path d="M564.426,469.764l1,1.077a.165.165,0,0,0,.15.045l2.2-.5a.155.155,0,0,0,.075-.264l-1.142-1.077a.159.159,0,0,0-.145-.04l-2.079.5a.159.159,0,0,0-.06.259Z" transform="translate(-542.102 -458.055)"/><path d="M558.053,471.332l1,1.077a.155.155,0,0,0,.15.045l2.208-.5a.16.16,0,0,0,.07-.269l-1.142-1.077a.15.15,0,0,0-.145-.035l-2.074.5a.155.155,0,0,0-.065.259Z" transform="translate(-538.905 -458.84)"/><path d="M551.316,472.673l1.027,1.092a.15.15,0,0,0,.14.045l2.228-.5a.145.145,0,0,0,.07-.249l-1.157-1.1a.144.144,0,0,0-.135-.035l-2.1.5a.14.14,0,0,0-.075.249Z" transform="translate(-535.523 -459.519)"/><path d="M564.349,465.809l1,1.077a.159.159,0,0,0,.149.045l2.2-.5a.155.155,0,0,0,.075-.264l-1.137-1.092a.159.159,0,0,0-.145-.04l-2.079.5a.155.155,0,0,0-.065.274Z" transform="translate(-542.056 -456.064)"/><path d="M558.239,467.227l1,1.072a.145.145,0,0,0,.15.045l2.208-.5a.155.155,0,0,0,.07-.264l-1.142-1.077a.139.139,0,0,0-.144-.04l-2.074.5a.155.155,0,0,0-.065.264Z" transform="translate(-538.996 -456.779)"/><path d="M551.692,468.622l1,1.077a.154.154,0,0,0,.15.045l2.2-.5a.16.16,0,0,0,.075-.269l-1.142-1.077a.155.155,0,0,0-.145-.035l-2.079.5a.155.155,0,0,0-.06.259Z" transform="translate(-535.714 -457.482)"/><path d="M544.962,470.249l1.027,1.092a.17.17,0,0,0,.145.04l2.228-.5a.144.144,0,0,0,.065-.249l-1.156-1.092a.149.149,0,0,0-.135-.035l-2.1.5a.15.15,0,0,0-.075.244Z" transform="translate(-532.345 -458.306)"/><path d="M570.666,464.342l1,1.072a.155.155,0,0,0,.15.05l2.2-.5a.155.155,0,0,0,.075-.264l-1.142-1.077a.145.145,0,0,0-.145-.04l-2.079.5a.159.159,0,0,0-.06.259Z" transform="translate(-545.232 -455.336)"/><path d="M559.952,463.114l1,1.077a.16.16,0,0,0,.15.045l2.2-.5a.154.154,0,0,0,.07-.264l-1.137-1.077a.16.16,0,0,0-.145-.04l-2.079.5a.155.155,0,0,0-.06.259Z" transform="translate(-539.857 -454.72)"/><path d="M583.565,453.762l1.112,1.176a.094.094,0,0,0,.09.03l2.353-.548a.095.095,0,0,0,.045-.16l-1.251-1.181a.1.1,0,0,0-.09,0l-2.213.548a.09.09,0,0,0-.045.135Z" transform="translate(-551.714 -450.064)"/><path d="M589.268,452.5l1.112,1.182a.1.1,0,0,0,.09.03l2.353-.548a.095.095,0,0,0,.045-.16l-1.246-1.181a.085.085,0,0,0-.085,0l-2.218.548a.09.09,0,0,0-.05.13Z" transform="translate(-554.576 -449.432)"/><path d="M595.131,451.245l1,1.092a.09.09,0,0,0,.095.03l2.193-.6a.1.1,0,0,0,.035-.164l-1.132-.952a.1.1,0,0,0-.08,0l-2.079.459a.09.09,0,0,0-.03.135Z" transform="translate(-557.513 -448.848)"/><path d="M601.273,453.288l1,1.1a.1.1,0,0,0,.09.03l2.194-.6a.095.095,0,0,0,.035-.164l-1.132-.952a.08.08,0,0,0-.08,0l-2.074.454a.095.095,0,0,0-.03.135Z" transform="translate(-560.594 -449.874)"/><path d="M600.516,457.229l.962,1.037a.115.115,0,0,0,.125.035l2.114-.573a.125.125,0,0,0,.05-.219l-1.072-.907a.125.125,0,0,0-.11-.025l-1.994.444a.125.125,0,0,0-.075.209Z" transform="translate(-560.205 -451.822)"/><path d="M595.527,462.36l.962,1.042a.125.125,0,0,0,.125.035l2.134-.578a.125.125,0,0,0,.05-.214l-1.072-.907a.124.124,0,0,0-.11,0l-1.994.439a.13.13,0,0,0-.095.184Z" transform="translate(-557.714 -454.405)"/><path d="M589.5,463.9l.962,1.037a.114.114,0,0,0,.125.035l2.114-.573a.125.125,0,0,0,.05-.219l-1.072-.907a.125.125,0,0,0-.11,0l-1.994.444a.125.125,0,0,0-.075.184Z" transform="translate(-554.691 -455.173)"/><path d="M601.18,460.822l.962,1.037a.134.134,0,0,0,.124.04l2.119-.578a.125.125,0,0,0,.045-.219l-1.072-.9a.145.145,0,0,0-.11-.03l-1.994.444a.129.129,0,0,0-.075.209Z" transform="translate(-560.541 -453.625)"/><path d="M600.183,465.105l1.451,1.306a.149.149,0,0,0,.12,0l2.1-.593a.124.124,0,0,0,.05-.214l-1.565-1.371a.115.115,0,0,0-.12,0l-1.994.663a.12.12,0,0,0-.04.209Z" transform="translate(-560.033 -455.655)"/><path d="M589.984,456.124l1,1.1a.085.085,0,0,0,.09.025l2.194-.6a.09.09,0,0,0,.035-.16l-1.132-.957a.09.09,0,0,0-.08,0l-2.074.459a.095.095,0,0,0-.03.135Z" transform="translate(-554.933 -451.295)"/><path d="M584.316,457.482l.962,1.037a.135.135,0,0,0,.125.04l2.119-.578a.125.125,0,0,0,.045-.219l-1.072-.9a.144.144,0,0,0-.11-.03l-1.994.444a.125.125,0,0,0-.075.209Z" transform="translate(-552.081 -451.95)"/><path d="M583.155,461.514l.962,1.042a.125.125,0,0,0,.125.035l2.114-.578a.125.125,0,0,0,.05-.214l-1.077-.907a.125.125,0,0,0-.11-.025l-1.994.439a.125.125,0,0,0-.07.209Z" transform="translate(-551.499 -453.973)"/><path d="M577.166,462.964l.962,1.042a.125.125,0,0,0,.125.035l2.114-.578a.125.125,0,0,0,.05-.214l-1.077-.907a.114.114,0,0,0-.1-.025l-1.994.439a.125.125,0,0,0-.075.209Z" transform="translate(-548.496 -454.7)"/><path d="M578.24,458.834l.962,1.042a.114.114,0,0,0,.125.035l2.114-.578a.124.124,0,0,0,.05-.214l-1.072-.907a.124.124,0,0,0-.11-.025l-1.994.444a.125.125,0,0,0-.075.2Z" transform="translate(-549.036 -452.629)"/><path d="M583.25,465.234l.962,1.042a.125.125,0,0,0,.125.035l2.114-.578a.125.125,0,0,0,.05-.214l-1.072-.907a.125.125,0,0,0-.11-.025l-1.994.439a.13.13,0,0,0-.075.209Z" transform="translate(-551.55 -455.839)"/><path d="M577.366,466.8l.912,1a.149.149,0,0,0,.154.045l2.039-.553a.16.16,0,0,0,.06-.274l-1-.857a.145.145,0,0,0-.135-.03l-1.934.424a.154.154,0,0,0-.1.249Z" transform="translate(-548.597 -456.609)"/><path d="M595.81,454.651l1,1.1a.1.1,0,0,0,.095,0l2.193-.6a.09.09,0,0,0,.035-.159L598,454.032a.11.11,0,0,0-.08,0l-2.074.459a.095.095,0,0,0-.035.159Z" transform="translate(-557.847 -450.544)"/><path d="M594.971,458.589l.962,1.042a.125.125,0,0,0,.125.035l2.114-.578a.125.125,0,0,0,.05-.214l-1.057-.9a.125.125,0,0,0-.11-.025l-1.994.439a.125.125,0,0,0-.09.2Z" transform="translate(-557.427 -452.509)"/><path d="M589.236,460.162l.962,1.037a.129.129,0,0,0,.125.04l2.114-.578a.13.13,0,0,0,.05-.219l-1.077-.9a.134.134,0,0,0-.1-.03l-1.994.444a.125.125,0,0,0-.075.209Z" transform="translate(-554.549 -453.294)"/><path d="M566.038,457.794l1.062,1.127a.129.129,0,0,0,.12.035l2.278-.528a.125.125,0,0,0,.055-.214l-1.191-1.127a.129.129,0,0,0-.12-.03l-2.144.528a.13.13,0,0,0-.06.209Z" transform="translate(-542.917 -452.062)"/><path d="M559.957,459.232l1,1.077a.154.154,0,0,0,.15.045l2.208-.5a.16.16,0,0,0,.07-.269l-1.142-1.077a.15.15,0,0,0-.145-.035l-2.074.5a.16.16,0,0,0-.065.259Z" transform="translate(-539.862 -452.772)"/><path d="M553.4,464.326l.753,1.206a.154.154,0,0,0,.169.07l2.547-.568a.155.155,0,0,0,.095-.244l-.837-1.167a.17.17,0,0,0-.16-.065l-2.493.528a.159.159,0,0,0-.075.239Z" transform="translate(-536.582 -455.324)"/><path d="M519.8,465.409l2.517-.583a.145.145,0,0,1,.15.055l.444.583a.145.145,0,0,1-.085.229l-2.607.608a.145.145,0,0,1-.159-.07l-.354-.608a.145.145,0,0,1,.095-.214Z" transform="translate(-519.69 -455.959)"/><path d="M526.732,463.9l2.493-.583a.14.14,0,0,1,.15.055l.444.578a.15.15,0,0,1-.085.234l-2.607.608a.15.15,0,0,1-.16-.07l-.354-.608a.145.145,0,0,1,.12-.214Z" transform="translate(-523.152 -455.201)"/><path d="M533.442,462.413l2.493-.578a.14.14,0,0,1,.15.05l.444.583a.145.145,0,0,1-.085.229l-2.607.608a.145.145,0,0,1-.16-.07l-.354-.6a.15.15,0,0,1,.12-.219Z" transform="translate(-526.518 -454.458)"/><path d="M540.016,460.964l2.493-.578a.14.14,0,0,1,.149.055l.444.578a.15.15,0,0,1-.085.234l-2.557.6a.14.14,0,0,1-.159-.065l-.354-.608a.15.15,0,0,1,.07-.219Z" transform="translate(-529.836 -453.732)"/><path d="M546.639,459.5l2.493-.578a.164.164,0,0,1,.159.06l.429.563a.16.16,0,0,1-.09.249l-2.587.6a.16.16,0,0,1-.169-.075l-.344-.588a.159.159,0,0,1,.11-.234Z" transform="translate(-533.14 -452.996)"/><path d="M553.094,458.153l2.493-.578a.15.15,0,0,1,.16.055l.429.563a.159.159,0,0,1-.09.249l-2.587.6a.16.16,0,0,1-.17-.075l-.349-.588a.155.155,0,0,1,.115-.229Z" transform="translate(-536.374 -452.322)"/><path d="M559.414,456.853l2.308-.558a.149.149,0,0,1,.15.045l.449.469a.155.155,0,0,1-.075.259l-2.283.573a.144.144,0,0,1-.145-.04l-.5-.5a.16.16,0,0,1,.095-.249Z" transform="translate(-539.548 -451.68)"/><path d="M565.587,455.414l2.378-.578a.119.119,0,0,1,.12.035l.5.523a.12.12,0,0,1-.06.2l-2.348.593a.13.13,0,0,1-.12-.035l-.523-.533a.125.125,0,0,1,.055-.209Z" transform="translate(-542.661 -450.949)"/><path d="M571.7,453.983l2.378-.578a.11.11,0,0,1,.12.035l.5.5a.13.13,0,0,1-.06.209l-2.338.613a.134.134,0,0,1-.12-.035l-.538-.528a.125.125,0,0,1,.06-.214Z" transform="translate(-545.721 -450.23)"/><path d="M577.839,452.725l2.378-.578a.13.13,0,0,1,.12.035l.5.5a.13.13,0,0,1-.06.209l-2.348.588a.129.129,0,0,1-.125-.035l-.523-.529a.13.13,0,0,1,.06-.189Z" transform="translate(-548.811 -449.601)"/><path d="M583.625,451.311l2.453-.593a.09.09,0,0,1,.09,0l.543.573a.09.09,0,0,1-.045.155l-2.4.633a.085.085,0,0,1-.09,0l-.578-.583a.095.095,0,0,1,.03-.184Z" transform="translate(-551.705 -448.88)"/><path d="M589.5,450.067l2.453-.6a.1.1,0,0,1,.09.03l.548.573a.095.095,0,0,1-.045.155l-2.423.608a.09.09,0,0,1-.09,0l-.578-.6a.095.095,0,0,1,.045-.164Z" transform="translate(-554.661 -448.259)"/><path d="M595.314,448.826l2.263-.5a.1.1,0,0,1,.095.035l.439.538a.09.09,0,0,1-.05.145l-2.129.563a.085.085,0,0,1-.09-.025l-.578-.583a.091.091,0,1,1,.05-.174Z" transform="translate(-557.556 -447.686)"/><path d="M600.877,447.545l2.268-.5a.09.09,0,0,1,.095.03l.439.538a.095.095,0,0,1-.05.15l-2.129.563a.11.11,0,0,1-.09,0l-.578-.588a.1.1,0,0,1,.045-.194Z" transform="translate(-560.343 -447.043)"/><path d="M523.448,470.741l.838,1.191a.145.145,0,0,0,.155.06l4.362-1a.145.145,0,0,0,.08-.229l-.922-1.221a.15.15,0,0,0-.155-.05l-4.267,1.042a.155.155,0,0,0-.09.2Z" transform="translate(-521.569 -458.3)"/><path d="M526.087,473.781l.838,1.326a.139.139,0,0,0,.155.065l5.269-1.251a.145.145,0,0,0,.08-.234l-1.042-1.291a.145.145,0,0,0-.15-.05l-5.06,1.216a.145.145,0,0,0-.09.219Z" transform="translate(-522.886 -459.729)"/><path d="M528.463,476.78l1,1.441a.145.145,0,0,0,.155.06l6.979-1.725a.15.15,0,0,0,.085-.234l-1.127-1.441a.145.145,0,0,0-.15-.055l-6.9,1.73a.145.145,0,0,0-.04.224Z" transform="translate(-524.071 -460.974)"/><path d="M560.513,471.457,561.79,473a.159.159,0,0,0,.159.05l15.354-3.834a.15.15,0,0,0,.07-.259l-1.565-1.56a.15.15,0,0,0-.15-.04l-15.065,3.853a.154.154,0,0,0-.08.249Z" transform="translate(-540.144 -457.226)"/><path d="M592.291,466.526l1.5,1.5a.13.13,0,0,0,.125.035l3.146-.843a.125.125,0,0,0,.055-.209l-1.56-1.53a.114.114,0,0,0-.12-.03l-3.091.852a.125.125,0,0,0-.05.229Z" transform="translate(-556.069 -456.268)"/><path d="M607.586,464.881l.683.728a.09.09,0,0,0,.09.025l2.333-.628a.09.09,0,0,0,.04-.155l-.833-.783a.1.1,0,0,0-.09,0l-2.183.683a.09.09,0,0,0-.04.13Z" transform="translate(-563.762 -455.575)"/><path d="M611.566,461.847l.818.857a.085.085,0,0,0,.095.025l2.139-.743a.09.09,0,0,0,.035-.155l-.8-.723a.1.1,0,0,0-.09,0l-2.159.6a.095.095,0,0,0-.04.135Z" transform="translate(-565.757 -454.092)"/><path d="M614.116,464.161l-.588-.5a.095.095,0,0,1,.03-.16l2.129-.738a.09.09,0,0,1,.1,0l.663.643a.095.095,0,0,1-.04.159l-2.214.573A.1.1,0,0,1,614.116,464.161Z" transform="translate(-566.732 -454.92)"/><path d="M619.1,462.125c.184.174.5.529.633.648a.1.1,0,0,0,.09.025l2.218-.6a.095.095,0,0,0,.04-.16l-.788-.708a.085.085,0,0,0-.09,0l-2.064.663a.09.09,0,0,0-.04.135Z" transform="translate(-569.536 -454.2)"/><path d="M606.6,458.449l1.191,1.147a.08.08,0,0,0,.085.025l5.728-1.5a.09.09,0,0,0,.035-.16L612.27,456.8a.085.085,0,0,0-.085,0l-5.524,1.5a.09.09,0,0,0-.06.154Z" transform="translate(-563.261 -451.93)"/><path d="M605.834,455.312l1.226,1.092a.105.105,0,0,0,.085,0l4.307-1a.095.095,0,0,0,.04-.165l-1.411-1.181a.1.1,0,0,0-.085,0l-4.123,1.112a.095.095,0,0,0-.04.14Z" transform="translate(-562.881 -450.558)"/><path d="M606.6,451.981l1.161,1.037a.09.09,0,0,0,.085,0l2.208-.5a.1.1,0,0,0,.045-.165l-1.376-1.186a.1.1,0,0,0-.09,0l-1.994.638a.095.095,0,0,0-.04.174Z" transform="translate(-563.249 -449.106)"/><path d="M600.537,449.633l1.127,1.022a.1.1,0,0,0,.085,0l3.49-.833a.095.095,0,0,0,.04-.159l-1.341-1.122a.1.1,0,0,0-.085,0l-3.29.932a.095.095,0,0,0-.025.16Z" transform="translate(-560.216 -447.79)"/></g><path class="r" d="M521.216,466.9l.763,1.226a.149.149,0,0,0,.154.065l2.577-.573a.15.15,0,0,0,.085-.229l-.852-1.187a.155.155,0,0,0-.15-.06l-2.493.533a.15.15,0,0,0-.085.224Z" transform="translate(-117.789 1041.038)"/><path class="r" d="M527.976,465.479l.758,1.226a.15.15,0,0,0,.16.065l2.572-.573a.145.145,0,0,0,.085-.229l-.848-1.186a.144.144,0,0,0-.149-.055l-2.493.533a.145.145,0,0,0-.085.219Z" transform="translate(-121.18 1041.746)"/><path class="r" d="M534.515,464.059l.763,1.226a.14.14,0,0,0,.155.065l2.577-.573a.144.144,0,0,0,.085-.224l-.857-1.191a.144.144,0,0,0-.149-.055l-2.493.533a.145.145,0,0,0-.08.219Z" transform="translate(-124.458 1042.458)"/><path class="r" d="M540.967,462.639l.753,1.211a.155.155,0,0,0,.169.07l2.553-.568a.16.16,0,0,0,.09-.244l-.848-1.177a.154.154,0,0,0-.159-.065l-2.493.528a.159.159,0,0,0-.065.244Z" transform="translate(-127.689 1043.18)"/><path class="r" d="M540.446,466.42l.763,1.231a.154.154,0,0,0,.155.065l2.572-.573a.145.145,0,0,0,.085-.229l-.848-1.186a.15.15,0,0,0-.15-.06l-2.493.533a.145.145,0,0,0-.085.219Z" transform="translate(-127.433 1041.274)"/><path class="r" d="M533.759,467.84l.763,1.226a.159.159,0,0,0,.16.07l2.572-.573a.145.145,0,0,0,.085-.229l-.852-1.186a.145.145,0,0,0-.15-.06l-2.493.533a.15.15,0,0,0-.085.219Z" transform="translate(-124.081 1040.562)"/><path class="r" d="M538.106,470.868l.763,1.226a.145.145,0,0,0,.16.065l2.572-.573a.145.145,0,0,0,.085-.229l-.852-1.186a.14.14,0,0,0-.15-.055l-2.493.528a.15.15,0,0,0-.085.224Z" transform="translate(-126.26 1039.044)"/><path class="r" d="M544.256,473.51l.763,1.231a.145.145,0,0,0,.155.065l2.572-.573a.15.15,0,0,0,.09-.229l-.852-1.186a.15.15,0,0,0-.15-.06l-2.493.534a.145.145,0,0,0-.085.219Z" transform="translate(-129.344 1037.718)"/><path class="r" d="M545.319,477.628l1.231,1.54a.145.145,0,0,0,.15.05l2.592-.673a.149.149,0,0,0,.08-.234l-1.276-1.555a.144.144,0,0,0-.15-.05l-2.552.688a.15.15,0,0,0-.075.234Z" transform="translate(-129.873 1035.74)"/><path class="r" d="M552.119,475.7l1.266,1.59a.144.144,0,0,0,.15.05l3.385-.937a.15.15,0,0,0,.075-.234l-1.276-1.555a.145.145,0,0,0-.15-.05l-3.37.907a.144.144,0,0,0-.08.229Z" transform="translate(-133.283 1036.813)"/><path class="r" d="M538.669,479.268l1.231,1.54a.145.145,0,0,0,.15.05l2.592-.673a.15.15,0,0,0,.08-.234l-1.276-1.555a.144.144,0,0,0-.15-.05l-2.552.688a.15.15,0,0,0-.075.234Z" transform="translate(-126.538 1034.917)"/><path class="r" d="M531.638,481.073l1.231,1.545a.145.145,0,0,0,.15.05l2.592-.673a.149.149,0,0,0,.08-.234l-1.271-1.555a.154.154,0,0,0-.155-.05l-2.553.688a.144.144,0,0,0-.075.229Z" transform="translate(-123.012 1034.009)"/><path class="r" d="M547.426,461.139l.748,1.211a.16.16,0,0,0,.17.07l2.552-.568a.154.154,0,0,0,.09-.244l-.837-1.172a.155.155,0,0,0-.16-.06l-2.463.528a.155.155,0,0,0-.1.234Z" transform="translate(-130.933 1043.928)"/><path class="r" d="M546.976,464.92l.748,1.211a.16.16,0,0,0,.17.07l2.552-.568a.154.154,0,0,0,.09-.244l-.837-1.167a.155.155,0,0,0-.16-.065l-2.463.528a.155.155,0,0,0-.1.234Z" transform="translate(-130.707 1042.031)"/><path class="r" d="M553.69,459.719l.748,1.211a.159.159,0,0,0,.169.07l2.553-.568a.154.154,0,0,0,.09-.244l-.837-1.172a.16.16,0,0,0-.16-.06l-2.463.518a.155.155,0,0,0-.1.244Z" transform="translate(-134.071 1044.639)"/><path class="r" d="M572.023,455.744l1.057,1.127a.139.139,0,0,0,.12.035l2.278-.528a.125.125,0,0,0,.06-.214l-1.191-1.127a.135.135,0,0,0-.12-.03l-2.144.529a.125.125,0,0,0-.06.209Z" transform="translate(-143.262 1046.62)"/><path class="r" d="M577.9,454.4l1.062,1.122a.12.12,0,0,0,.12.04l2.278-.528a.125.125,0,0,0,.07-.2l-1.191-1.127a.13.13,0,0,0-.12-.03l-2.144.528a.13.13,0,0,0-.075.2Z" transform="translate(-146.214 1047.288)"/><path class="r" d="M572.149,459.4l1.062,1.127a.13.13,0,0,0,.12.035l2.278-.529a.125.125,0,0,0,.06-.214l-1.2-1.127a.119.119,0,0,0-.115-.03l-2.144.528a.13.13,0,0,0-.065.209Z" transform="translate(-143.327 1044.786)"/><path class="r" d="M566.119,460.777l1,1.072a.154.154,0,0,0,.15.045l2.208-.5a.155.155,0,0,0,.07-.264l-1.142-1.077a.139.139,0,0,0-.145-.04l-2.074.5a.155.155,0,0,0-.065.264Z" transform="translate(-140.294 1044.111)"/><path class="r" d="M570.7,467.582l1,1.077a.155.155,0,0,0,.15.045l2.208-.5a.159.159,0,0,0,.07-.269l-1.142-1.077a.15.15,0,0,0-.145-.035l-2.074.5a.159.159,0,0,0-.065.259Z" transform="translate(-142.594 1040.695)"/><path class="r" d="M564.426,469l1,1.077a.165.165,0,0,0,.15.045l2.2-.5a.154.154,0,0,0,.075-.264l-1.142-1.077a.17.17,0,0,0-.145-.04l-2.079.5a.16.16,0,0,0-.06.259Z" transform="translate(-139.448 1039.98)"/><path class="r" d="M558.01,470.548l1,1.077a.169.169,0,0,0,.15.045l2.208-.5a.155.155,0,0,0,.085-.3l-1.142-1.077a.15.15,0,0,0-.145-.04l-2.074.5a.155.155,0,0,0-.08.294Z" transform="translate(-136.207 1039.225)"/><path class="r" d="M551.322,471.925l1.027,1.092a.145.145,0,0,0,.14.04l2.228-.5a.15.15,0,0,0,.07-.249l-1.162-1.1a.16.16,0,0,0-.135-.035l-2.1.5a.144.144,0,0,0-.07.249Z" transform="translate(-132.875 1038.511)"/><path class="r" d="M564.354,465.052l1,1.077a.15.15,0,0,0,.15.045l2.2-.5a.16.16,0,0,0,.075-.269l-1.136-1.087a.155.155,0,0,0-.145-.035l-2.079.5a.155.155,0,0,0-.065.269Z" transform="translate(-139.406 1041.969)"/><path class="r" d="M558.247,466.484l1,1.077a.165.165,0,0,0,.15.045l2.208-.5a.155.155,0,0,0,.07-.264l-1.142-1.077a.165.165,0,0,0-.145-.04l-2.074.5a.16.16,0,0,0-.065.259Z" transform="translate(-136.351 1041.244)"/><path class="r" d="M551.692,467.872l1,1.072a.154.154,0,0,0,.15.05l2.2-.5a.154.154,0,0,0,.075-.264l-1.142-1.077a.144.144,0,0,0-.145-.04l-2.079.5a.154.154,0,0,0-.06.259Z" transform="translate(-133.061 1040.549)"/><path class="r" d="M544.958,469.435l1.027,1.092a.155.155,0,0,0,.145.04l2.228-.5a.15.15,0,0,0,.065-.249l-1.157-1.092a.15.15,0,0,0-.135-.04l-2.1.5a.15.15,0,0,0-.075.249Z" transform="translate(-129.687 1039.76)"/><path class="r" d="M570.666,463.585l1,1.077a.164.164,0,0,0,.15.045l2.2-.5a.154.154,0,0,0,.075-.264l-1.142-1.077a.17.17,0,0,0-.145-.04l-2.079.5a.159.159,0,0,0-.06.259Z" transform="translate(-142.577 1042.698)"/><path class="r" d="M559.952,462.355l1,1.077a.149.149,0,0,0,.15.045l2.2-.5a.154.154,0,0,0,.07-.264l-1.137-1.077a.169.169,0,0,0-.145-.04l-2.079.5a.155.155,0,0,0-.06.259Z" transform="translate(-137.202 1043.315)"/><path class="r" d="M583.567,453.007l1.112,1.182a.1.1,0,0,0,.09.025l2.353-.543a.095.095,0,0,0,.045-.159l-1.251-1.181a.1.1,0,0,0-.09,0l-2.213.548a.09.09,0,0,0-.045.13Z" transform="translate(-149.063 1047.967)"/><path class="r" d="M589.257,451.731l1.112,1.181a.12.12,0,0,0,.09.025l2.353-.543a.095.095,0,0,0,.045-.16l-1.246-1.181a.09.09,0,0,0-.085-.025l-2.218.548a.095.095,0,0,0-.05.155Z" transform="translate(-151.91 1048.615)"/><path class="r" d="M595.113,450.46l1,1.1a.1.1,0,0,0,.095,0l2.194-.6a.095.095,0,0,0,.035-.16l-1.132-.957a.1.1,0,0,0-.08,0l-2.079.459a.09.09,0,0,0-.03.16Z" transform="translate(-154.84 1049.213)"/><path class="r" d="M601.287,452.559l1,1.1a.085.085,0,0,0,.09.025l2.194-.6a.09.09,0,0,0,.035-.16l-1.112-.932a.09.09,0,0,0-.08,0l-2.074.459A.1.1,0,0,0,601.287,452.559Z" transform="translate(-157.953 1048.136)"/><path class="r" d="M600.52,456.472l.962,1.042a.14.14,0,0,0,.125.035l2.114-.578a.125.125,0,0,0,.05-.219l-1.072-.9a.145.145,0,0,0-.11-.03l-1.994.444a.129.129,0,0,0-.075.209Z" transform="translate(-157.556 1046.212)"/><path class="r" d="M595.525,461.569l.962,1.042a.115.115,0,0,0,.125.035l2.134-.578a.125.125,0,0,0,.05-.214l-1.092-.882a.125.125,0,0,0-.11-.025l-1.994.444a.125.125,0,0,0-.075.18Z" transform="translate(-155.058 1043.642)"/><path class="r" d="M589.49,463.122l.962,1.042a.139.139,0,0,0,.125.035l2.114-.578a.125.125,0,0,0,.05-.219l-1.072-.9a.144.144,0,0,0-.11-.03l-1.994.444a.13.13,0,0,0-.075.209Z" transform="translate(-152.024 1042.877)"/><path class="r" d="M601.18,460.064l.962,1.042a.12.12,0,0,0,.125.035l2.119-.578a.125.125,0,0,0,.045-.214l-1.072-.907a.124.124,0,0,0-.11-.025l-1.994.439a.13.13,0,0,0-.075.209Z" transform="translate(-157.887 1044.409)"/><path class="r" d="M600.2,464.356l1.451,1.3a.12.12,0,0,0,.12.025l2.1-.593a.125.125,0,0,0,.05-.214l-1.565-1.371a.115.115,0,0,0-.12,0l-1.994.663a.125.125,0,0,0-.04.189Z" transform="translate(-157.397 1042.366)"/><path class="r" d="M589.984,455.4l1,1.1a.1.1,0,0,0,.09.03l2.194-.6a.095.095,0,0,0,.035-.165l-1.132-.952a.08.08,0,0,0-.08,0l-2.074.454a.095.095,0,0,0-.03.135Z" transform="translate(-152.278 1046.723)"/><path class="r" d="M584.32,456.724l.962,1.042a.129.129,0,0,0,.125.035l2.119-.578a.125.125,0,0,0,.045-.214L586.5,456.1a.125.125,0,0,0-.11-.025l-1.994.439a.13.13,0,0,0-.075.209Z" transform="translate(-149.432 1046.084)"/><path class="r" d="M583.155,460.759l.962,1.037a.115.115,0,0,0,.125.035l2.114-.573a.13.13,0,0,0,.05-.219l-1.077-.907a.125.125,0,0,0-.11-.025l-1.994.444a.125.125,0,0,0-.07.209Z" transform="translate(-148.845 1044.063)"/><path class="r" d="M577.166,462.209l.962,1.037a.115.115,0,0,0,.125.035l2.114-.573a.13.13,0,0,0,.05-.219l-1.077-.907a.114.114,0,0,0-.1-.025L577.24,462a.125.125,0,0,0-.075.209Z" transform="translate(-145.842 1043.336)"/><path class="r" d="M578.236,458.082l.962,1.037a.115.115,0,0,0,.125.035l2.114-.573a.13.13,0,0,0,.05-.219l-1.072-.9a.144.144,0,0,0-.11-.03l-1.994.444a.125.125,0,0,0-.075.209Z" transform="translate(-146.378 1045.405)"/><path class="r" d="M583.25,464.474l.962,1.042a.115.115,0,0,0,.125.035l2.114-.573a.125.125,0,0,0,.05-.219l-1.072-.907a.125.125,0,0,0-.11-.025l-1.994.444a.125.125,0,0,0-.075.2Z" transform="translate(-148.895 1042.198)"/><path class="r" d="M577.366,466.044l.912,1a.165.165,0,0,0,.155.045l2.039-.558a.154.154,0,0,0,.06-.269l-1-.857a.145.145,0,0,0-.135-.035l-1.934.429a.154.154,0,0,0-.1.249Z" transform="translate(-145.942 1041.426)"/><path class="r" d="M595.825,453.918l1,1.1a.1.1,0,0,0,.095.03l2.193-.6a.095.095,0,0,0,.035-.164l-1.132-.952a.08.08,0,0,0-.08,0l-2.074.459a.09.09,0,0,0-.035.13Z" transform="translate(-155.209 1047.465)"/><path class="r" d="M594.964,457.824l.962,1.042a.115.115,0,0,0,.125.035l2.114-.573a.13.13,0,0,0,.05-.219l-1.077-.907a.125.125,0,0,0-.11-.025l-1.994.444a.12.12,0,0,0-.07.2Z" transform="translate(-154.767 1045.532)"/><path class="r" d="M589.24,459.4l.962,1.042a.125.125,0,0,0,.125.035l2.114-.578a.125.125,0,0,0,.05-.214l-1.077-.907a.115.115,0,0,0-.1-.025l-1.994.439a.13.13,0,0,0-.075.209Z" transform="translate(-151.899 1044.74)"/><path class="r" d="M566.019,457.015l1.062,1.107a.12.12,0,0,0,.12.035l2.278-.523a.125.125,0,0,0,.055-.214l-1.192-1.127a.134.134,0,0,0-.119-.035l-2.144.533a.125.125,0,0,0-.06.224Z" transform="translate(-140.243 1045.993)"/><path class="r" d="M559.949,458.507l1,1.072a.145.145,0,0,0,.15.045l2.208-.5a.155.155,0,0,0,.07-.264l-1.142-1.077a.14.14,0,0,0-.145-.04l-2.074.5a.155.155,0,0,0-.065.264Z" transform="translate(-137.199 1045.249)"/><path class="r" d="M553.4,463.569l.753,1.211a.159.159,0,0,0,.169.07l2.547-.568a.16.16,0,0,0,.095-.244l-.837-1.172a.155.155,0,0,0-.16-.06l-2.493.529a.154.154,0,0,0-.075.234Z" transform="translate(-133.928 1042.709)"/><path class="r" d="M519.812,464.65l2.518-.583a.155.155,0,0,1,.15.055l.444.583a.145.145,0,0,1-.085.229l-2.607.593a.145.145,0,0,1-.16-.07l-.354-.6a.15.15,0,0,1,.095-.2Z" transform="translate(-117.043 1042.076)"/><path class="r" d="M526.732,463.141l2.493-.583a.155.155,0,0,1,.15.055l.444.583a.145.145,0,0,1-.085.229l-2.607.608a.145.145,0,0,1-.16-.07l-.354-.608a.145.145,0,0,1,.12-.214Z" transform="translate(-120.498 1042.833)"/><path class="r" d="M533.442,461.7l2.493-.583a.144.144,0,0,1,.15.055l.444.578a.15.15,0,0,1-.085.234l-2.607.608a.149.149,0,0,1-.159-.07l-.354-.608a.145.145,0,0,1,.12-.214Z" transform="translate(-123.863 1043.557)"/><path class="r" d="M540.016,460.209l2.493-.583a.145.145,0,0,1,.15.055l.444.583a.15.15,0,0,1-.085.229l-2.557.608a.145.145,0,0,1-.16-.07l-.354-.608a.144.144,0,0,1,.07-.214Z" transform="translate(-127.183 1044.304)"/><path class="r" d="M546.642,458.745l2.492-.578a.164.164,0,0,1,.16.055l.429.568a.155.155,0,0,1-.09.244l-2.587.6a.159.159,0,0,1-.169-.075l-.344-.588a.16.16,0,0,1,.11-.229Z" transform="translate(-130.488 1045.036)"/><path class="r" d="M553.1,457.414l2.493-.578a.154.154,0,0,1,.16.06l.429.563a.155.155,0,0,1-.09.244l-2.587.6a.16.16,0,0,1-.169-.075l-.339-.588a.155.155,0,0,1,.1-.229Z" transform="translate(-133.729 1045.703)"/><path class="r" d="M559.414,456.1l2.308-.563a.159.159,0,0,1,.149.045l.449.474a.15.15,0,0,1-.075.254l-2.283.573a.144.144,0,0,1-.145-.04l-.5-.5a.154.154,0,0,1,.095-.244Z" transform="translate(-136.894 1046.355)"/><path class="r" d="M565.6,454.666l2.378-.578a.135.135,0,0,1,.12.035l.5.5a.125.125,0,0,1-.06.209l-2.348.588a.12.12,0,0,1-.12-.035l-.523-.533a.125.125,0,0,1,.055-.184Z" transform="translate(-140.022 1047.081)"/><path class="r" d="M571.715,453.225l2.378-.578a.13.13,0,0,1,.12.035l.5.5a.13.13,0,0,1-.06.209l-2.338.613a.12.12,0,0,1-.12-.035l-.524-.533a.125.125,0,0,1,.045-.209Z" transform="translate(-143.083 1047.803)"/><path class="r" d="M577.814,451.974l2.378-.578a.12.12,0,0,1,.12.035l.5.5a.13.13,0,0,1-.06.209l-2.348.593a.145.145,0,0,1-.125-.035l-.523-.5a.125.125,0,0,1,.06-.219Z" transform="translate(-146.131 1048.431)"/><path class="r" d="M583.636,450.556l2.453-.6a.09.09,0,0,1,.09,0l.543.578a.095.095,0,0,1-.045.155l-2.4.633a.115.115,0,0,1-.09,0l-.578-.588a.095.095,0,0,1,.03-.179Z" transform="translate(-149.062 1049.156)"/><path class="r" d="M589.522,449.3l2.453-.593a.089.089,0,0,1,.09,0l.548.573a.09.09,0,0,1-.045.154l-2.423.608a.09.09,0,0,1-.09-.025l-.578-.583a.095.095,0,0,1,.045-.135Z" transform="translate(-152.026 1049.783)"/><path class="r" d="M595.33,448.064l2.263-.5a.085.085,0,0,1,.095.03l.439.538a.095.095,0,0,1-.05.15l-2.129.563a.115.115,0,0,1-.09-.025l-.578-.588a.09.09,0,0,1,.05-.17Z" transform="translate(-154.918 1050.352)"/><path class="r" d="M600.911,446.786l2.268-.5a.1.1,0,0,1,.095.03l.439.538a.095.095,0,0,1-.05.15l-2.129.563a.085.085,0,0,1-.09-.025l-.578-.583a.095.095,0,0,1,.045-.174Z" transform="translate(-157.722 1050.992)"/><path class="r" d="M523.448,470l.838,1.191a.144.144,0,0,0,.155.06l4.362-1a.145.145,0,0,0,.08-.229l-.922-1.216a.144.144,0,0,0-.154-.055l-4.267,1.047a.15.15,0,0,0-.09.2Z" transform="translate(-118.915 1039.726)"/><path class="r" d="M526.077,473.022l.838,1.331a.144.144,0,0,0,.155.065l5.269-1.256a.145.145,0,0,0,.08-.234l-1.042-1.291a.154.154,0,0,0-.15-.05l-5.06,1.2a.145.145,0,0,0-.09.234Z" transform="translate(-120.223 1038.306)"/><path class="r" d="M528.463,476.03l1,1.441a.145.145,0,0,0,.155.055l6.979-1.725a.145.145,0,0,0,.085-.229l-1.127-1.446a.145.145,0,0,0-.149-.05l-6.9,1.725a.149.149,0,0,0-.04.229Z" transform="translate(-121.417 1037.058)"/><path class="r" d="M560.514,470.7l1.276,1.535a.159.159,0,0,0,.159.05l15.355-3.829a.155.155,0,0,0,.07-.264l-1.565-1.555a.165.165,0,0,0-.15-.045l-15.065,3.854a.16.16,0,0,0-.08.254Z" transform="translate(-137.49 1040.808)"/><path class="r" d="M592.291,465.773l1.5,1.5a.13.13,0,0,0,.125.03l3.146-.842a.125.125,0,0,0,.055-.209l-1.56-1.525a.12.12,0,0,0-.12-.035l-3.091.857a.125.125,0,0,0-.05.229Z" transform="translate(-153.414 1041.767)"/><path class="r" d="M607.528,464.128l.683.723a.09.09,0,0,0,.09,0l2.333-.623a.095.095,0,0,0,.04-.16l-.833-.778a.085.085,0,0,0-.09-.025l-2.183.683a.092.092,0,1,0-.04.18Z" transform="translate(-161.049 1042.479)"/><path class="r" d="M611.535,461.06l.818.857a.084.084,0,0,0,.095,0l2.139-.738a.095.095,0,0,0,.035-.16l-.8-.718a.1.1,0,0,0-.09-.025l-2.159.608a.095.095,0,0,0-.04.174Z" transform="translate(-163.072 1043.976)"/><path class="r" d="M614.112,463.423l-.588-.474a.095.095,0,0,1,.03-.164l2.129-.738a.1.1,0,0,1,.1,0l.663.648a.09.09,0,0,1-.04.155l-2.213.573A.1.1,0,0,1,614.112,463.423Z" transform="translate(-164.073 1043.095)"/><path class="r" d="M619.091,461.342c.185.179.5.528.633.648a.085.085,0,0,0,.09,0l2.218-.6a.09.09,0,0,0,.04-.155l-.788-.713a.1.1,0,0,0-.09,0l-2.064.663a.095.095,0,0,0-.04.16Z" transform="translate(-166.869 1043.859)"/><path class="r" d="M606.6,457.689l1.192,1.147a.085.085,0,0,0,.085,0l5.728-1.5a.095.095,0,0,0,.035-.164l-1.391-1.147a.089.089,0,0,0-.085,0l-5.524,1.5a.095.095,0,0,0-.04.165Z" transform="translate(-160.601 1046.111)"/><path class="r" d="M605.834,454.556l1.226,1.092a.09.09,0,0,0,.085,0l4.307-1a.095.095,0,0,0,.04-.164l-1.411-1.176a.089.089,0,0,0-.085,0l-4.123,1.107a.095.095,0,0,0-.04.14Z" transform="translate(-160.228 1047.475)"/><path class="r" d="M606.621,451.25l1.161,1.037a.11.11,0,0,0,.085.025l2.208-.5a.095.095,0,0,0,.045-.16l-1.376-1.186a.085.085,0,0,0-.09,0l-1.994.643a.09.09,0,0,0-.04.14Z" transform="translate(-160.62 1048.901)"/><path class="r" d="M600.487,448.865l1.127,1a.085.085,0,0,0,.085,0l3.49-.828a.095.095,0,0,0,.04-.165l-1.341-1.122a.085.085,0,0,0-.085,0l-3.29.927a.1.1,0,0,0-.025.189Z" transform="translate(-157.512 1050.264)"/><path class="l" d="M519.555,336.861a99.094,99.094,0,0,0-6.047,7.976,25.236,25.236,0,0,1-2.448,3.265c-1.291,1.361-2.906,2.383-4.227,3.719a24.791,24.791,0,0,0-3.684,5.379,39.416,39.416,0,0,0-1.994,3.9,19.737,19.737,0,0,0-.872,12.648c.4,1.5,1.211,3.181,2.737,3.534a4.8,4.8,0,0,0,3.44-1,7.96,7.96,0,0,0,2.946-2.572,8.3,8.3,0,0,0,.857-3.146l1.311-9.6a11.086,11.086,0,0,1,.693-2.991,8.663,8.663,0,0,1,3.958-3.839c1.64-.9,3.41-1.575,4.985-2.6,1.466-.957,2.727-2.2,4.192-3.161,1.8-1.181,3.889-1.914,5.529-3.305s2.752-3.8,1.745-5.7a6.656,6.656,0,0,0-1.8-1.9l-3.206-2.582c-.683-.548-2.094-2.208-2.956-2.318s-2.169,1.2-2.747,1.71a24.285,24.285,0,0,0-2.413,2.577Z" transform="translate(-106.976 1108.02)"/><path class="g" d="M508.265,310.319a10.571,10.571,0,0,1,1.994.5c.653.264,1.251.663,1.909.912a22.876,22.876,0,0,0,2.6.618,3.49,3.49,0,0,1,2.2,1.4,6.63,6.63,0,0,0-3.664,2.368,11.076,11.076,0,0,0-1.53,3.026,34.02,34.02,0,0,0-1.994,10.01,2.051,2.051,0,0,0,.449,1.68c-2.218-1.8-5.354-1.745-8.206-1.615a2.043,2.043,0,0,1-.8-.065,1.784,1.784,0,0,1-.7-.578,6.978,6.978,0,0,1-1.5-3.35,15.128,15.128,0,0,1,.5-5.289,27.256,27.256,0,0,0,.648-5.12,24.874,24.874,0,0,0-.818-4.841c-.354-2.019,1.9-1.027,3.106-.793Z" transform="translate(-106.628 1119.975)"/><g transform="translate(-1218.658 536.183)"><g transform="translate(1390.355 886.651)"><path class="m" d="M790.087,213.931c43.838-.783,43.831-65.675,0-66.452C746.248,148.262,746.255,213.154,790.087,213.931Z" transform="translate(-757.21 -147.479)"/><path class="n" d="M790.087,213.931c43.838-.783,43.831-65.675,0-66.452C746.248,148.262,746.255,213.154,790.087,213.931Zm0-64.437c41.181.736,41.174,61.694,0,62.424-41.18-.736-41.174-61.695,0-62.425Z" transform="translate(-757.21 -147.479)"/><path class="u" d="M806.862,173.685c-8.224.235-24.216-2.693-24.224,9.936.236,8.191-2.7,24.12,9.975,24.128,8.223-.235,24.215,2.693,24.223-9.936C816.6,189.622,819.541,173.693,806.862,173.685Z" transform="translate(-766.862 -157.491)"/><path class="m" d="M824.085,187.251c2.767.035,2.758-4.3-.009-4.249C821.308,182.968,821.318,187.3,824.085,187.251Z" transform="translate(-800.471 -161.122)"/></g><path class="m" d="M805.242,190.433c-7.4-.108-7.4,11.465,0,11.355C812.638,201.9,812.638,190.325,805.242,190.433Zm0-2.838c11.092-.161,11.094,17.2,0,17.032C794.148,204.789,794.149,187.432,805.242,187.595Z" transform="translate(617.989 723.766)"/></g><g transform="translate(-1131.768 471.35)"><path class="m" d="M795.867,530.354c43.838-.783,43.831-65.675,0-66.451C752.03,464.686,752.036,529.578,795.867,530.354Z" transform="translate(569.261 614.659)"/><path class="n" d="M795.867,530.354c43.838-.783,43.831-65.675,0-66.451C752.03,464.686,752.036,529.578,795.867,530.354Zm0-64.437c41.181.736,41.175,61.694,0,62.424C754.687,527.606,754.693,466.647,795.867,465.917Z" transform="translate(569.261 614.659)"/><path class="v" d="M824.616,501.721a31.362,31.362,0,0,1-3.376,3.363c-1.5,16.218-11.662,19.9-19.825,19.9-5.868,0-10.7-1.9-10.543-2.427,8.707.2,9.449-3.357,9.449-3.357-5.058-.745-6.072-4.034-6.072-4.034a2.089,2.089,0,0,0,2.7-.671,6.109,6.109,0,0,1-4.718-6.726,7.045,7.045,0,0,0,3.3,1.281c-.606-.739-5.714-6.837-2.64-10,.179.48,5.5,7.693,14.384,7.17a7.123,7.123,0,0,1,6.95-8.537c4.724,0,5.739,2.692,5.739,2.692l3.376-2.02c-.068,0-.408,3.363-2.1,4.034Z" transform="translate(560.149 601.684)"/></g><g transform="translate(-979.759 586.971)"><path class="m" d="M656.019,370.931c43.838-.783,43.831-65.675,0-66.452C612.181,305.262,612.188,370.154,656.019,370.931Z" transform="translate(795.588 675.887)"/><path class="n" d="M656.019,370.931c43.838-.783,43.831-65.675,0-66.452C612.181,305.262,612.188,370.154,656.019,370.931Zm0-64.437c41.181.736,41.174,61.694,0,62.424-41.18-.736-41.173-61.695,0-62.425Z" transform="translate(795.588 675.887)"/><path class="w" d="M683.345,347.091a18.486,18.486,0,0,1-15.636,18.239l0-12.9h4.316l.822-5.34h-5.139c-.173-4.447-.346-6.942,5.355-6.344v-4.54c-8.54-1.872-12.1,2.439-11.143,10.884h-4.706v5.34h4.706v12.892c-22.15-3.394-19.547-36.772,2.888-36.686a18.494,18.494,0,0,1,18.533,18.457Z" transform="translate(786.641 666.609)"/></g><g transform="translate(-1134.758 635.998)"><path class="m" d="M656.019,370.931c43.838-.783,43.831-65.675,0-66.452C612.181,305.262,612.188,370.154,656.019,370.931Z" transform="translate(795.614 675.887)"/><path class="n" d="M656.019,370.931c43.838-.783,43.831-65.675,0-66.452C612.181,305.262,612.188,370.154,656.019,370.931Zm0-64.437c41.181.736,41.174,61.694,0,62.424-41.18-.736-41.173-61.695,0-62.425Z" transform="translate(795.588 675.887)"/><g transform="translate(1431.758 999.939)"><path class="x" d="M38.194,4.273A4.886,4.886,0,0,0,34.757.835C31.705,0,19.5,0,19.5,0S7.292,0,4.24.8A4.986,4.986,0,0,0,.8,4.273C0,7.324,0,13.652,0,13.652s0,6.36.8,9.38A4.887,4.887,0,0,0,4.24,26.47C7.324,27.3,19.5,27.3,19.5,27.3s12.207,0,15.258-.8a4.886,4.886,0,0,0,3.437-3.437c.8-3.052.8-9.38.8-9.38s.032-6.361-.8-9.412Zm0,0"/><path class="m" d="M204.969,114.177l10.151-5.846-10.151-5.846Zm0,0" transform="translate(-189.357 -94.678)"/></g></g></g></svg>