<svg xmlns="http://www.w3.org/2000/svg" xmlns:xlink="http://www.w3.org/1999/xlink" width="120" height="120" viewBox="0 0 120 120"><defs><style>.a{fill:#fff;}.b{clip-path:url(#c);}.c{fill:url(#d);}.d{fill:url(#e);}.e{fill:url(#f);}.f{fill:url(#g);}.g{filter:url(#a);}</style><filter id="a" x="-30" y="-30" width="180" height="180" filterUnits="userSpaceOnUse"><feOffset input="SourceAlpha"/><feGaussianBlur stdDeviation="10" result="b"/><feFlood flood-opacity="0.302"/><feComposite operator="in" in2="b"/><feComposite in="SourceGraphic"/></filter><clipPath id="c"><g class="g" transform="matrix(1, 0, 0, 1, 0, 0)"><rect class="a" width="120" height="120" rx="10" transform="translate(1575 3333)"/></g></clipPath><linearGradient id="d" x1="0.332" y1="0.141" x2="0.585" y2="0.682" gradientUnits="objectBoundingBox"><stop offset="0" stop-color="#ff4500"/><stop offset="1" stop-color="#dd3400"/></linearGradient><linearGradient id="e" x1="0.738" y1="0.628" x2="-0.899" y2="-0.25" gradientUnits="objectBoundingBox"><stop offset="0" stop-color="#dd3400" stop-opacity="0"/><stop offset="1" stop-color="#bf2800"/></linearGradient><linearGradient id="f" x1="0.5" y1="0.312" x2="0.5" y2="0.883" xlink:href="#e"/><linearGradient id="g" x1="0.978" y1="0.939" x2="0.368" y2="0.285" xlink:href="#e"/></defs><g transform="translate(-1583 -3341)"><g class="b" transform="translate(8 8)"><g transform="translate(1567.378 3325.378)"><path class="c" d="M111.054,132.929a408.5,408.5,0,0,1-86.864,0A24.626,24.626,0,0,1,2.315,111.053a408.487,408.487,0,0,1,0-86.863A24.626,24.626,0,0,1,24.19,2.315a408.487,408.487,0,0,1,86.863,0A24.626,24.626,0,0,1,132.929,24.19a408.488,408.488,0,0,1,0,86.863,24.625,24.625,0,0,1-21.875,21.876Zm0,0" transform="translate(0 0)"/><path class="d" d="M124.714,28.224A21.852,21.852,0,0,0,105.3,8.812a362.621,362.621,0,0,0-77.08,0A21.855,21.855,0,0,0,8.812,28.224a362.611,362.611,0,0,0,0,77.079,21.853,21.853,0,0,0,19.412,19.412,362.476,362.476,0,0,0,77.079,0A21.851,21.851,0,0,0,124.714,105.3a362.476,362.476,0,0,0,0-77.079Zm0,0" transform="translate(0.859 0.859)"/><path class="e" d="M1.8,96.048q.139,1.4.289,2.8a24.626,24.626,0,0,0,21.876,21.875,408.487,408.487,0,0,0,86.863,0A24.625,24.625,0,0,0,132.7,98.852q.15-1.4.29-2.8Zm0,0" transform="translate(0.228 12.202)"/><path class="f" d="M108.746,130.031a24.625,24.625,0,0,0,21.875-21.876,408.837,408.837,0,0,0,2.265-49.731L100.265,25.8a7.073,7.073,0,0,0-11.879.523l-17.35-3.466a2.193,2.193,0,0,0-2.622,1.672v.035L63.188,49.133a50.717,50.717,0,0,0-27.61,8.711A10.332,10.332,0,0,0,21.43,72.907q.313.293.65.562a10.363,10.363,0,0,0,1.03,1.117c.208.2.425.383.65.561.13.164.267.325.41.482q-.034,1.128.04,2.258c0,6.462,3.072,12.435,8.253,17.242l37.192,37.192q19.556-.209,39.091-2.291Zm0,0" transform="translate(2.308 2.898)"/><path class="a" d="M112.459,65.358a10.342,10.342,0,0,0-17.491-7.092,50.332,50.332,0,0,0-27.258-8.71L72.3,27.472l15.151,3.185a7.089,7.089,0,1,0,.932-4.33l-17.35-3.466a2.193,2.193,0,0,0-2.622,1.672v.035L63.188,49.134a50.717,50.717,0,0,0-27.61,8.711A10.332,10.332,0,0,0,21.431,72.907a9.981,9.981,0,0,0,2.78,1.866,23.077,23.077,0,0,0,0,3.115c0,15.854,18.477,28.753,41.265,28.753s41.265-12.881,41.265-28.753a23.078,23.078,0,0,0,0-3.115,10.33,10.33,0,0,0,5.718-9.414ZM41.667,72.45a7.092,7.092,0,1,1,7.092,7.092A7.1,7.1,0,0,1,41.667,72.45ZM82.79,91.912A27.188,27.188,0,0,1,65.3,97.368a27.189,27.189,0,0,1-17.492-5.455A1.913,1.913,0,0,1,50.5,89.219a23.122,23.122,0,0,0,14.728,4.452,23.3,23.3,0,0,0,14.8-4.311,1.979,1.979,0,0,1,2.762,2.833ZM81.523,79.788a5.016,5.016,0,1,1,.3.263h-.352Zm0,0" transform="translate(2.308 2.898)"/></g></g></g></svg>