<svg xmlns="http://www.w3.org/2000/svg" width="270.438" height="300.666" viewBox="0 0 270.438 300.666"><defs><style>.a{fill:#2f2e41;}.b{fill:#e8b8bf;}.c{fill:#0cbc35;}.d{fill:#fff;}</style></defs><g transform="translate(-1459.561 -969.334)"><path class="a" d="M317.151,699.217a5.132,5.132,0,0,0,.2-.961l11.384-68.593a5.236,5.236,0,0,1,.086-.554,6.548,6.548,0,0,1,5.485-5.162l72.6.314a6.516,6.516,0,0,1,6.827,3.591q1.771,3.677,3.469,7.459c4.582,10.157,14.781,66,18.634,77.319C352.3,707.954,370.92,707.47,317,699.679Z" transform="translate(1242.769 544.228)"/><path class="b" d="M492.479,430.707a15.2,15.2,0,0,1,.348,2.376l62.49,35.908,15.189-8.71L586.7,481.4l-25.385,18.022a11.674,11.674,0,0,1-13.962-.339l-64.438-50.635a15.2,15.2,0,1,1,9.566-17.737Z" transform="translate(997.219 631.916)"/><path class="c" d="M412.831,479.292a6.536,6.536,0,0,1,3.222-4.385l28.674-15.971a18.135,18.135,0,1,1,22.292,28.611l-22.861,23.646a6.566,6.566,0,0,1-9.9-.536l-4.452-5.753-1.521-1.959-14.223-18.361a6.376,6.376,0,0,1-1.119-2.254,6.456,6.456,0,0,1-.111-3.037Z" transform="translate(1140.561 618.028)"/><path class="b" d="M35.864.136A35.659,35.659,0,1,1,.136,35.864,35.49,35.49,0,0,1,35.864.136Z" transform="translate(1620.171 1074.076) rotate(-135)"/><path class="c" d="M313.49,538.6c-1.435-2.137-10.556-16.563-7.1-33.47a37.248,37.248,0,0,1,.952-3.714,41.441,41.441,0,0,1,7.649-13.926c-.043-1.133-.031-2.248.037-3.357v-.006a32.083,32.083,0,0,1,29.682-29.849l39.959-3.024a31.906,31.906,0,0,1,27.258,11.555,34.025,34.025,0,0,1,2.109,2.833l0,0a.006.006,0,0,1,0,0,31.565,31.565,0,0,1,4.118,26.011l-.34,1.491-4.26,18.608-7.124,31.136-5.961,26.054-.631,2.747a6.556,6.556,0,0,1-6.382,5.069,6.254,6.254,0,0,1-1.064-.086l-77.321-12.627a6.482,6.482,0,0,1-2.987-1.306,6.73,6.73,0,0,1-1.354-1.448,6.426,6.426,0,0,1-1-5.032Z" transform="translate(1261.507 619.558)"/><path class="b" d="M301.854,665.309a15.536,15.536,0,0,0-6.212-23.052L251.618,507.434l-25.513,12.058,48.169,131.275a15.7,15.7,0,0,0,27.579,14.542Z" transform="translate(1425.314 597.941)"/><path class="c" d="M301.957,455.211a19.5,19.5,0,0,1,23.82,11.672l0,0a.006.006,0,0,1,0,0c.161.413.309.844.439,1.275l3.729,7.878,11.267,23.806a6.965,6.965,0,0,1-4.31,9.658l-2.2.659L325.3,513l-16.7,5.026-5.565,1.675a7.008,7.008,0,0,1-8.96-5.667l-5.145-34.764a19.366,19.366,0,0,1,13.029-24.059Z" transform="translate(1349.762 618.315)"/><path class="a" d="M318.009,327.748c12.731,11.093,32.276,13.669,47.465,6.255-6.823,8.063-19.781,47.863-19.781,47.863s36.589-3.83,41.758-4.931c30.532-6.5,19.434-85.266-13.1-84.868-5.51.067-10.328.731-14,4.828-2.434-6.8-10.175-10.8-17.4-10.282s-13.761,4.842-18.41,10.377a39.6,39.6,0,0,0-8.432,32.549Z" transform="translate(1269.355 682.766)"/><g transform="translate(0 -156)"><path class="d" d="M582.19,360.53a1,1,0,0,0,.761-1.7l-3.365-3.542a.576.576,0,0,1,.023-.816l3.575-3.37a1.03,1.03,0,0,0,.04-1.46h0a1.042,1.042,0,0,0-1.461-.045l-4.81,4.477a.974.974,0,0,0-.038,1.389l4.573,4.753A1.009,1.009,0,0,0,582.19,360.53Z" transform="translate(929.729 814.663)"/><path class="d" d="M553.22,358.481a.617.617,0,0,0,.4.162l11.214.308a.616.616,0,1,0,.034-1.231l-11.214-.308a.616.616,0,0,0-.436,1.069Z" transform="translate(962.373 811.558)"/></g></g></svg>