<svg xmlns="http://www.w3.org/2000/svg" xmlns:xlink="http://www.w3.org/1999/xlink" width="120" height="120" viewBox="0 0 120 120"><defs><style>.a{fill:#fff;}.b{clip-path:url(#c);}.c{fill:#50abf1;}.d{filter:url(#a);}</style><filter id="a" x="-30" y="-30" width="180" height="180" filterUnits="userSpaceOnUse"><feOffset input="SourceAlpha"/><feGaussianBlur stdDeviation="10" result="b"/><feFlood flood-opacity="0.302"/><feComposite operator="in" in2="b"/><feComposite in="SourceGraphic"/></filter><clipPath id="c"><g class="d" transform="matrix(1, 0, 0, 1, 0, 0)"><rect class="a" width="120" height="120" rx="10" transform="translate(0 0)"/></g></clipPath></defs><g transform="translate(-454 -3341)"><g class="b" transform="translate(454 3341)"><g transform="translate(0 0)"><rect class="c" width="120" height="120"/><path class="a" d="M28.745,109.395a51.662,51.662,0,0,0,79.272-43.66q0-1.068-.042-2.124c1.032-.812,7.414-5.927,8.978-9.216A41.9,41.9,0,0,1,106.7,57.056l-.032,0a.234.234,0,0,0,.027-.017c.467-.312,7-4.76,7.886-10.06a62.928,62.928,0,0,1-8.8,3.668c-.85.282-1.739.56-2.656.817A18.126,18.126,0,0,0,72.236,67.953c-1.4-.057-22.707-1.252-37.2-18.807,0,0-8.664,11.827,5.163,23.989A18.623,18.623,0,0,1,32.366,70.8S31.034,85.13,46.692,88.793a16.585,16.585,0,0,1-8,.335s2.749,11.577,16.66,12.659c0,0-11,9.937-26.616,7.606Z" transform="translate(-12.847 -20.442)"/></g></g></g></svg>