<svg xmlns="http://www.w3.org/2000/svg" xmlns:xlink="http://www.w3.org/1999/xlink" width="43.862" height="50.081" viewBox="0 0 43.862 50.081"><defs><style>.a{fill:#fff;}.b{fill:#0cbc35;}.c,.d{opacity:0.2;mix-blend-mode:multiply;isolation:isolate;}.c{fill:url(#a);}.d{fill:url(#b);}</style><linearGradient id="a" x1="0.021" y1="5.812" x2="-1.08" y2="4.912" gradientUnits="objectBoundingBox"><stop offset="0" stop-color="#fff"/><stop offset="0.41" stop-color="#989898"/><stop offset="1"/></linearGradient><linearGradient id="b" x1="-1.265" y1="5.144" x2="-0.265" y2="5.144" gradientUnits="objectBoundingBox"><stop offset="0" stop-color="#fff"/><stop offset="0.438" stop-color="#919191"/><stop offset="1"/></linearGradient></defs><g transform="translate(-25.151 277.287) rotate(-90)"><g transform="translate(227.205 25.151)"><g transform="translate(0 0)"><path class="a" d="M317.507,286.188H292.191c-5.652,0-10.233-5.4-10.233-12.062v-7.913c0-6.662,4.582-12.062,10.233-12.062H311.12c3.748,0,6.786,3.581,6.786,8H292.191c-1.9,0-3.447,1.819-3.447,4.064v7.913c0,2.244,1.543,4.064,3.447,4.064h25.315Z" transform="translate(-281.958 -254.151)"/></g></g><g transform="translate(241.193 36.976)"><path class="b" d="M373.755,341.929H354.681c-3.748,0-6.786-3.581-6.786-8h25.86c1.9,0,3.448-1.819,3.448-4.064v-7.913c0-2.244-1.543-4.064-3.448-4.064H348.44v-8h25.315c5.652,0,10.233,5.4,10.233,12.062v7.913C383.989,336.529,379.407,341.929,373.755,341.929Z" transform="translate(-347.895 -309.892)"/></g><path class="c" d="M304.893,277h25.714l-6.236-2.961A10.57,10.57,0,0,0,319.827,273H304.921c-3.778,0-6.841,3.61-6.841,8.063v7.913c0,4.453,3.063,8.063,6.841,8.063h25.288v-4H304.893c-1.9,0-3.447-1.819-3.447-4.064v-7.913C301.446,278.822,302.989,277,304.893,277Z" transform="translate(-67.455 -243.854)"/><path class="d" d="M359.567,352.874h14.216c3.778,0,6.841-3.61,6.841-8.063V336.9c0-4.453-3.063-8.063-6.841-8.063H348.44v4h25.315c1.9,0,3.448,1.82,3.448,4.064v7.913c0,2.244-1.543,4.064-3.448,4.064H347.9l6.813,2.973A12.12,12.12,0,0,0,359.567,352.874Z" transform="translate(-106.702 -287.841)"/></g></svg>