<svg xmlns="http://www.w3.org/2000/svg" xmlns:xlink="http://www.w3.org/1999/xlink" width="78.713" height="89.874" viewBox="0 0 78.713 89.874"><defs><style>.a{fill:#fff;}.b,.c{opacity:0.2;mix-blend-mode:multiply;isolation:isolate;}.b{fill:url(#a);}.c{fill:url(#b);}</style><linearGradient id="a" x1="0.021" y1="5.812" x2="-1.08" y2="4.912" gradientUnits="objectBoundingBox"><stop offset="0" stop-color="#fff"/><stop offset="0.41" stop-color="#989898"/><stop offset="1"/></linearGradient><linearGradient id="b" x1="-1.265" y1="5.144" x2="-0.265" y2="5.144" gradientUnits="objectBoundingBox"><stop offset="0" stop-color="#fff"/><stop offset="0.438" stop-color="#919191"/><stop offset="1"/></linearGradient></defs><g transform="translate(0 89.874) rotate(-90)"><g transform="translate(0 0)"><g transform="translate(0 0)"><path class="a" d="M63.794,57.493H18.365C8.222,57.493,0,47.8,0,35.847v-14.2C0,9.692,8.222,0,18.365,0H52.333c6.726,0,12.178,6.426,12.178,14.354H18.365c-3.417,0-6.187,3.265-6.187,7.292v14.2c0,4.027,2.77,7.292,6.187,7.292h45.43Z"/></g></g><g transform="translate(25.102 21.22)"><path class="a" d="M46.408,57.493H12.177C5.452,57.493,0,51.066,0,43.139H46.408c3.417,0,6.187-3.265,6.187-7.293v-14.2c0-4.028-2.77-7.293-6.187-7.293H.978V0h45.43C56.55,0,64.773,9.691,64.773,21.646v14.2C64.773,47.8,56.55,57.493,46.408,57.493Z"/></g><path class="b" d="M12.227,7.177H58.373L47.182,1.863A18.968,18.968,0,0,0,39.027,0H12.276C5.5,0,0,6.478,0,14.469v14.2c0,7.991,5.5,14.469,12.276,14.469H57.656V35.962H12.227c-3.417,0-6.187-3.265-6.187-7.292v-14.2C6.041,10.442,8.81,7.177,12.227,7.177Z" transform="translate(6.137 7.177)"/><path class="c" d="M20.945,43.139H46.457c6.78,0,12.276-6.478,12.276-14.469v-14.2C58.732,6.478,53.237,0,46.457,0H.978V7.177h45.43c3.417,0,6.187,3.265,6.187,7.292v14.2c0,4.027-2.77,7.293-6.187,7.293H0L12.227,41.3A21.75,21.75,0,0,0,20.945,43.139Z" transform="translate(25.102 28.432)"/></g></svg>