<svg xmlns="http://www.w3.org/2000/svg" xmlns:xlink="http://www.w3.org/1999/xlink" width="120" height="120" viewBox="0 0 120 120"><defs><style>.a{fill:#fff;}.b{clip-path:url(#c);}.c{fill:url(#d);}.d{fill:url(#e);}.e{fill:url(#f);}.f{fill:url(#g);}.g{fill:url(#h);}.h{fill:url(#i);}.i{fill:url(#j);}.j{fill:url(#k);}.k{filter:url(#a);}</style><filter id="a" x="-30" y="-30" width="180" height="180" filterUnits="userSpaceOnUse"><feOffset input="SourceAlpha"/><feGaussianBlur stdDeviation="10" result="b"/><feFlood flood-opacity="0.302"/><feComposite operator="in" in2="b"/><feComposite in="SourceGraphic"/></filter><clipPath id="c"><g class="k" transform="matrix(1, 0, 0, 1, 0, 0)"><rect class="a" width="120" height="120" rx="10" transform="translate(0)"/></g></clipPath><radialGradient id="d" cx="0.205" cy="0.874" r="1.103" gradientTransform="translate(0)" gradientUnits="objectBoundingBox"><stop offset="0" stop-color="#fae100"/><stop offset="0.054" stop-color="#fadc04"/><stop offset="0.117" stop-color="#fbce0e"/><stop offset="0.183" stop-color="#fcb720"/><stop offset="0.251" stop-color="#fe9838"/><stop offset="0.305" stop-color="#ff7950"/><stop offset="0.492" stop-color="#ff1c74"/><stop offset="1" stop-color="#6c1cd1"/></radialGradient><linearGradient id="e" x1="0.369" y1="0.426" x2="-1.54" y2="-0.648" gradientUnits="objectBoundingBox"><stop offset="0" stop-color="#a1b5d8" stop-opacity="0"/><stop offset="0.309" stop-color="#90a2bd" stop-opacity="0.31"/><stop offset="0.755" stop-color="#7c8b9c" stop-opacity="0.757"/><stop offset="1" stop-color="#748290"/></linearGradient><linearGradient id="f" x1="0.5" y1="0.413" x2="0.5" y2="1.193" gradientUnits="objectBoundingBox"><stop offset="0" stop-color="#fae100" stop-opacity="0"/><stop offset="0.307" stop-color="#fca800" stop-opacity="0.306"/><stop offset="0.627" stop-color="#fe7300" stop-opacity="0.627"/><stop offset="0.868" stop-color="#ff5200" stop-opacity="0.867"/><stop offset="1" stop-color="#ff4500"/></linearGradient><linearGradient id="g" x1="0.316" y1="0.311" x2="0.012" y2="0.005" gradientUnits="objectBoundingBox"><stop offset="0" stop-color="#833ab4" stop-opacity="0"/><stop offset="1" stop-color="#833ab4"/></linearGradient><linearGradient id="h" x1="0.582" y1="0.887" x2="0.418" y2="0.113" xlink:href="#g"/><linearGradient id="i" x1="0.605" y1="0.605" x2="-0.16" y2="-0.16" xlink:href="#g"/><linearGradient id="j" x1="0.376" y1="0.332" x2="-0.072" y2="-0.063" xlink:href="#g"/><linearGradient id="k" x1="0.816" y1="0.182" x2="0.172" y2="0.835" gradientUnits="objectBoundingBox"><stop offset="0" stop-color="#833ab4"/><stop offset="0.092" stop-color="#9c3495"/><stop offset="0.293" stop-color="#dc2546"/><stop offset="0.392" stop-color="#fd1d1d"/><stop offset="0.559" stop-color="#fc6831"/><stop offset="0.689" stop-color="#fc9b40"/><stop offset="0.752" stop-color="#fcaf45"/><stop offset="0.781" stop-color="#fdb750"/><stop offset="0.866" stop-color="#fecb6a"/><stop offset="0.942" stop-color="#ffd87a"/><stop offset="1" stop-color="#ffdc80"/></linearGradient></defs><g transform="translate(-718 -3341)"><g class="b" transform="translate(718 3341)"><g transform="translate(-10.378 -10.378)"><path class="c" d="M138.347,25.176A25.628,25.628,0,0,0,115.58,2.41a425.136,425.136,0,0,0-90.4,0A25.63,25.63,0,0,0,2.41,25.176a425.136,425.136,0,0,0,0,90.4,25.63,25.63,0,0,0,22.766,22.768,425.146,425.146,0,0,0,90.4,0,25.629,25.629,0,0,0,22.766-22.768A425.136,425.136,0,0,0,138.347,25.176Zm0,0" transform="translate(0 0)"/><path class="d" d="M136.562,36.138a22.742,22.742,0,0,0-20.2-20.2,377.4,377.4,0,0,0-80.222,0,22.745,22.745,0,0,0-20.2,20.2,377.391,377.391,0,0,0,0,80.221,22.743,22.743,0,0,0,20.2,20.2,377.249,377.249,0,0,0,80.221,0,22.742,22.742,0,0,0,20.2-20.2,377.251,377.251,0,0,0,0-80.221Zm0,0" transform="translate(-5.87 -5.871)"/><path class="e" d="M3.671,196.1q.145,1.459.3,2.919a25.63,25.63,0,0,0,22.768,22.766,425.136,425.136,0,0,0,90.4,0,25.629,25.629,0,0,0,22.766-22.766q.156-1.459.3-2.919Zm0,0" transform="translate(-1.562 -83.436)"/><path class="f" d="M157.707,135.393A425.507,425.507,0,0,0,160.1,86.816L127.928,54.642a23.044,23.044,0,0,0-16.789-7.7c-14.187-.511-28.419-.485-42.609,0C56.746,47.35,48.5,55.271,46.391,66.913c-.373,2.055-.6,4.138-.889,6.208v34.13c.162,1.106.4,2.207.475,3.319a24.813,24.813,0,0,0,8.042,17.25L86.76,160.56a425.523,425.523,0,0,0,48.181-2.4,25.629,25.629,0,0,0,22.766-22.768Zm0,0" transform="translate(-19.36 -19.814)"/><path class="g" d="M164.052,141.39a25.63,25.63,0,0,1-22.766,22.766,425.747,425.747,0,0,1-48.18,2.4L60.414,133.864a22.922,22.922,0,0,0,14.462,5.553c14.186.533,28.422.519,42.607.008,12.831-.464,22.116-9.96,22.516-22.791.427-13.623.427-27.282,0-40.905a23.749,23.749,0,0,0-5.706-15.069l32.153,32.153a426.269,426.269,0,0,1-2.4,48.577Zm0,0" transform="translate(-25.705 -25.809)"/><path class="h" d="M122.412,90.562a22.543,22.543,0,1,0-31.85,31.85l52.162,52.162q4.142-.361,8.281-.8A25.63,25.63,0,0,0,173.772,151q.441-4.138.8-8.281Zm0,0" transform="translate(-35.425 -35.425)"/><path class="i" d="M206.3,116.232l-41.98-41.979a5.358,5.358,0,1,0-7.508,7.508L205.554,130.5q.5-7.131.751-14.267Zm0,0" transform="translate(-65.821 -30.691)"/><path class="j" d="M45.5,73.12c.293-2.07.517-4.153.889-6.208C48.5,55.27,56.746,47.349,68.53,46.943c14.189-.488,28.422-.513,42.609,0,12.827.462,22.116,9.959,22.516,22.79q.639,20.437,0,40.907c-.4,12.831-9.686,22.327-22.515,22.79-14.187.512-28.423.525-42.609-.008-12.829-.482-21.7-10-22.555-22.851-.074-1.111-.312-2.213-.475-3.319V73.12Zm44.248,52.7c6.493,0,12.992.194,19.476-.045,10.167-.377,16.42-6.444,16.657-16.6q.441-18.984,0-37.986c-.237-10.155-6.495-16.364-16.657-16.58q-19.348-.409-38.709,0c-10.085.212-16.356,6.3-16.63,16.338q-.522,19.224,0,38.47c.274,10.042,6.545,15.985,16.631,16.359,6.4.238,12.821.045,19.232.045Zm0,0" transform="translate(-19.36 -19.814)"/><g transform="translate(26.142 26.754)"><path class="a" d="M45.5,73.12c.293-2.07.517-4.153.889-6.208C48.5,55.27,56.746,47.349,68.53,46.943c14.189-.488,28.422-.513,42.609,0,12.827.462,22.116,9.959,22.516,22.79q.639,20.437,0,40.907c-.4,12.831-9.686,22.327-22.515,22.79-14.187.512-28.423.525-42.609-.008-12.829-.482-21.7-10-22.555-22.851-.074-1.111-.312-2.213-.475-3.319V73.12Zm44.248,52.7c6.493,0,12.992.194,19.476-.045,10.167-.377,16.42-6.444,16.657-16.6q.441-18.984,0-37.986c-.237-10.155-6.495-16.364-16.657-16.58q-19.348-.409-38.709,0c-10.085.212-16.356,6.3-16.63,16.338q-.522,19.224,0,38.47c.274,10.042,6.545,15.985,16.631,16.359,6.4.238,12.821.045,19.232.045Zm0,0" transform="translate(-45.502 -46.568)"/><path class="a" d="M105.8,83.26A22.545,22.545,0,1,0,128.348,105.8,22.545,22.545,0,0,0,105.8,83.26Zm0,37.327A14.783,14.783,0,1,1,120.586,105.8,14.783,14.783,0,0,1,105.8,120.587Zm0,0" transform="translate(-61.566 -62.179)"/><path class="a" d="M165.424,77.5a5.364,5.364,0,1,1-5.363-5.364A5.363,5.363,0,0,1,165.424,77.5Zm0,0" transform="translate(-91.963 -57.445)"/></g></g></g></g></svg>