<svg xmlns="http://www.w3.org/2000/svg" xmlns:xlink="http://www.w3.org/1999/xlink" width="120" height="120" viewBox="0 0 120 120"><defs><style>.a{fill:#fff;}.b{clip-path:url(#c);}.c{fill:#4267b2;}.d{filter:url(#a);}</style><filter id="a" x="-30" y="-30" width="180" height="180" filterUnits="userSpaceOnUse"><feOffset input="SourceAlpha"/><feGaussianBlur stdDeviation="10" result="b"/><feFlood flood-opacity="0.302"/><feComposite operator="in" in2="b"/><feComposite in="SourceGraphic"/></filter><clipPath id="c"><g class="d" transform="matrix(1, 0, 0, 1, 0, 0)"><rect class="a" width="120" height="120" rx="10"/></g></clipPath></defs><g transform="translate(-190 -3341)"><g class="b" transform="translate(190 3341)"><g transform="translate(0 0)"><path class="c" d="M113.376,0H6.618A6.622,6.622,0,0,0,0,6.624V113.382A6.622,6.622,0,0,0,6.624,120H113.376A6.622,6.622,0,0,0,120,113.379V6.618A6.622,6.622,0,0,0,113.376,0Zm0,0" transform="translate(0 0)"/><path class="a" d="M122.068,134.649V88.243h15.645l2.344-18.164H122.068V58.51c0-5.247,1.457-8.822,8.98-8.822h9.535v-16.2a128.18,128.18,0,0,0-13.974-.714c-13.828,0-23.292,8.437-23.292,23.939V70.079H87.732V88.243h15.586v46.406Zm0,0" transform="translate(-39.217 -14.649)"/></g></g></g></svg>