<svg xmlns="http://www.w3.org/2000/svg" xmlns:xlink="http://www.w3.org/1999/xlink" width="120" height="120" viewBox="0 0 120 120"><defs><style>.a{fill:#fff;}.b{clip-path:url(#c);}.c{fill:#c9353d;}.d{filter:url(#a);}</style><filter id="a" x="-30" y="-30" width="180" height="180" filterUnits="userSpaceOnUse"><feOffset input="SourceAlpha"/><feGaussianBlur stdDeviation="10" result="b"/><feFlood flood-opacity="0.302"/><feComposite operator="in" in2="b"/><feComposite in="SourceGraphic"/></filter><clipPath id="c"><g class="d" transform="matrix(1, 0, 0, 1, 0, 0)"><rect class="a" width="120" height="120" rx="10" transform="translate(0 0)"/></g></clipPath></defs><g transform="translate(-1510 -3341)"><g class="b" transform="translate(1510 3341)"><g transform="translate(0 0)"><rect class="c" width="120" height="120"/><path class="a" d="M54.886,113.174a44.337,44.337,0,1,1,59.033-24.5c-9.4,23.991-34.61,32.479-53.511,26.494,1.413-3.49,3.021-6.933,4.2-10.518,1.183-3.6,1.937-7.341,2.824-10.806.764.642,1.531,1.324,2.335,1.959,4.176,3.3,8.9,3.621,13.852,2.431a20.91,20.91,0,0,0,12.5-8.631A33.492,33.492,0,0,0,101.9,64.971c-1.3-9.129-6.706-15.735-15.18-19.061C73.951,40.9,61.847,42.585,51.363,51.771c-8.063,7.065-10.774,19.041-6.9,28.365a13.353,13.353,0,0,0,6.683,7.292c1.629.772,2.32.457,2.792-1.244.035-.127.078-.251.124-.374a6.453,6.453,0,0,0-.914-6.635c-2.928-4.188-2.405-9.037-.993-13.682A20.665,20.665,0,0,1,71.938,50.721a30.365,30.365,0,0,1,7.412.773A15.454,15.454,0,0,1,91.532,66.043,33.773,33.773,0,0,1,88.44,82.937a16.005,16.005,0,0,1-5.4,6.668,9.087,9.087,0,0,1-7.631,1.475,6.664,6.664,0,0,1-5-8.27c1-3.946,2.287-7.818,3.265-11.767a15.6,15.6,0,0,0,.461-5.186c-.463-4.635-4.842-6.8-8.935-4.533-2.867,1.585-4.248,4.234-4.888,7.3A17.59,17.59,0,0,0,61,77.954a3.894,3.894,0,0,1,.091,2.01c-1.86,8.11-3.849,16.191-5.61,24.322a51.8,51.8,0,0,0-.59,7.324C54.858,112.078,54.886,112.551,54.886,113.174Z" transform="translate(-12.597 -12.588)"/></g></g></g></svg>