<svg xmlns="http://www.w3.org/2000/svg" width="30" height="30.003" viewBox="0 0 30 30.003"><defs><style>.a{fill:#0cbc35;}</style></defs><path class="a" d="M29.194,13.049l0,0L16.953.809a2.761,2.761,0,0,0-3.906,0L.814,13.041.8,13.053A2.761,2.761,0,0,0,2.64,17.759q.042,0,.085,0h.488V26.77A3.236,3.236,0,0,0,6.446,30h4.788a.879.879,0,0,0,.879-.879V22.062a1.476,1.476,0,0,1,1.475-1.475h2.824a1.476,1.476,0,0,1,1.475,1.475v7.061a.879.879,0,0,0,.879.879h4.788a3.236,3.236,0,0,0,3.233-3.232V17.763h.452a2.762,2.762,0,0,0,1.955-4.714Zm0,0" transform="translate(0 0.001)"/></svg>